<svg width="346" height="213" viewBox="0 0 346 213" fill="none" xmlns="http://www.w3.org/2000/svg">
<g filter="url(#filter0_f_1_64)">
<rect x="60" y="60" width="226" height="93" rx="15" fill="#E8E8E8"/>
</g>
<g filter="url(#filter1_d_1_64)">
<path fill-rule="evenodd" clip-rule="evenodd" d="M42 84C36.4772 84 32 88.4772 32 94V122C32 127.523 36.4772 132 42 132H243.857L256.638 154.137L269.419 132H284C289.523 132 294 127.523 294 122V94C294 88.4772 289.523 84 284 84H42Z" fill="url(#paint0_linear_1_64)" shape-rendering="crispEdges"/>
</g>
<path d="M54.8652 100.5V114H53.2393V100.5H54.8652ZM54.4785 108.885L53.8018 108.858C53.8076 108.208 53.9043 107.607 54.0918 107.057C54.2793 106.5 54.543 106.017 54.8828 105.606C55.2227 105.196 55.627 104.88 56.0957 104.657C56.5703 104.429 57.0947 104.314 57.6689 104.314C58.1377 104.314 58.5596 104.379 58.9346 104.508C59.3096 104.631 59.6289 104.83 59.8926 105.105C60.1621 105.381 60.3672 105.738 60.5078 106.178C60.6484 106.611 60.7188 107.142 60.7188 107.769V114H59.084V107.751C59.084 107.253 59.0107 106.854 58.8643 106.556C58.7178 106.251 58.5039 106.031 58.2227 105.896C57.9414 105.756 57.5957 105.686 57.1855 105.686C56.7812 105.686 56.4121 105.771 56.0781 105.94C55.75 106.11 55.4658 106.345 55.2256 106.644C54.9912 106.942 54.8066 107.285 54.6719 107.672C54.543 108.053 54.4785 108.457 54.4785 108.885ZM67.1348 104.49V105.738H61.9932V104.49H67.1348ZM63.7334 102.179H65.3594V111.645C65.3594 111.967 65.4092 112.21 65.5088 112.374C65.6084 112.538 65.7373 112.646 65.8955 112.699C66.0537 112.752 66.2236 112.778 66.4053 112.778C66.54 112.778 66.6807 112.767 66.8271 112.743C66.9795 112.714 67.0938 112.69 67.1699 112.673L67.1787 114C67.0498 114.041 66.8799 114.079 66.6689 114.114C66.4639 114.155 66.2148 114.176 65.9219 114.176C65.5234 114.176 65.1572 114.097 64.8232 113.938C64.4893 113.78 64.2227 113.517 64.0234 113.147C63.8301 112.772 63.7334 112.269 63.7334 111.636V102.179ZM73.0234 104.49V105.738H67.8818V104.49H73.0234ZM69.6221 102.179H71.248V111.645C71.248 111.967 71.2979 112.21 71.3975 112.374C71.4971 112.538 71.626 112.646 71.7842 112.699C71.9424 112.752 72.1123 112.778 72.2939 112.778C72.4287 112.778 72.5693 112.767 72.7158 112.743C72.8682 112.714 72.9824 112.69 73.0586 112.673L73.0674 114C72.9385 114.041 72.7686 114.079 72.5576 114.114C72.3525 114.155 72.1035 114.176 71.8105 114.176C71.4121 114.176 71.0459 114.097 70.7119 113.938C70.3779 113.78 70.1113 113.517 69.9121 113.147C69.7188 112.772 69.6221 112.269 69.6221 111.636V102.179ZM76.5566 106.318V117.656H74.9219V104.49H76.416L76.5566 106.318ZM82.9639 109.166V109.351C82.9639 110.042 82.8818 110.684 82.7178 111.275C82.5537 111.861 82.3135 112.371 81.9971 112.805C81.6865 113.238 81.3027 113.575 80.8457 113.815C80.3887 114.056 79.8643 114.176 79.2725 114.176C78.6689 114.176 78.1357 114.076 77.6729 113.877C77.21 113.678 76.8174 113.388 76.4951 113.007C76.1729 112.626 75.915 112.169 75.7217 111.636C75.5342 111.103 75.4053 110.502 75.335 109.834V108.85C75.4053 108.146 75.5371 107.517 75.7305 106.96C75.9238 106.403 76.1787 105.929 76.4951 105.536C76.8174 105.138 77.207 104.836 77.6641 104.631C78.1211 104.42 78.6484 104.314 79.2461 104.314C79.8438 104.314 80.374 104.432 80.8369 104.666C81.2998 104.895 81.6895 105.223 82.0059 105.65C82.3223 106.078 82.5596 106.591 82.7178 107.188C82.8818 107.78 82.9639 108.439 82.9639 109.166ZM81.3291 109.351V109.166C81.3291 108.691 81.2793 108.246 81.1797 107.83C81.0801 107.408 80.9248 107.039 80.7139 106.723C80.5088 106.4 80.2451 106.148 79.9229 105.967C79.6006 105.779 79.2168 105.686 78.7715 105.686C78.3613 105.686 78.0039 105.756 77.6992 105.896C77.4004 106.037 77.1455 106.228 76.9346 106.468C76.7236 106.702 76.5508 106.972 76.416 107.276C76.2871 107.575 76.1904 107.886 76.126 108.208V110.484C76.2432 110.895 76.4072 111.281 76.6182 111.645C76.8291 112.002 77.1104 112.292 77.4619 112.515C77.8135 112.731 78.2559 112.84 78.7891 112.84C79.2285 112.84 79.6064 112.749 79.9229 112.567C80.2451 112.38 80.5088 112.125 80.7139 111.803C80.9248 111.48 81.0801 111.111 81.1797 110.695C81.2793 110.273 81.3291 109.825 81.3291 109.351ZM90.5752 111.478C90.5752 111.243 90.5225 111.026 90.417 110.827C90.3174 110.622 90.1094 110.438 89.793 110.273C89.4824 110.104 89.0137 109.957 88.3867 109.834C87.8594 109.723 87.3818 109.591 86.9541 109.438C86.5322 109.286 86.1719 109.102 85.873 108.885C85.5801 108.668 85.3545 108.413 85.1963 108.12C85.0381 107.827 84.959 107.484 84.959 107.092C84.959 106.717 85.041 106.362 85.2051 106.028C85.375 105.694 85.6123 105.398 85.917 105.141C86.2275 104.883 86.5996 104.681 87.0332 104.534C87.4668 104.388 87.9502 104.314 88.4834 104.314C89.2451 104.314 89.8955 104.449 90.4346 104.719C90.9736 104.988 91.3867 105.349 91.6738 105.8C91.9609 106.245 92.1045 106.74 92.1045 107.285H90.4785C90.4785 107.021 90.3994 106.767 90.2412 106.521C90.0889 106.269 89.8633 106.061 89.5645 105.896C89.2715 105.732 88.9111 105.65 88.4834 105.65C88.0322 105.65 87.666 105.721 87.3848 105.861C87.1094 105.996 86.9072 106.169 86.7783 106.38C86.6553 106.591 86.5938 106.813 86.5938 107.048C86.5938 107.224 86.623 107.382 86.6816 107.522C86.7461 107.657 86.8574 107.783 87.0156 107.9C87.1738 108.012 87.3965 108.117 87.6836 108.217C87.9707 108.316 88.3369 108.416 88.7822 108.516C89.5615 108.691 90.2031 108.902 90.707 109.148C91.2109 109.395 91.5859 109.696 91.832 110.054C92.0781 110.411 92.2012 110.845 92.2012 111.354C92.2012 111.771 92.1133 112.151 91.9375 112.497C91.7676 112.843 91.5186 113.142 91.1904 113.394C90.8682 113.64 90.4814 113.833 90.0303 113.974C89.585 114.108 89.084 114.176 88.5273 114.176C87.6895 114.176 86.9805 114.026 86.4004 113.728C85.8203 113.429 85.3809 113.042 85.082 112.567C84.7832 112.093 84.6338 111.592 84.6338 111.064H86.2686C86.292 111.51 86.4209 111.864 86.6553 112.128C86.8896 112.386 87.1768 112.57 87.5166 112.682C87.8564 112.787 88.1934 112.84 88.5273 112.84C88.9727 112.84 89.3447 112.781 89.6436 112.664C89.9482 112.547 90.1797 112.386 90.3379 112.181C90.4961 111.976 90.5752 111.741 90.5752 111.478ZM94.2666 113.139C94.2666 112.863 94.3516 112.632 94.5215 112.444C94.6973 112.251 94.9492 112.154 95.2773 112.154C95.6055 112.154 95.8545 112.251 96.0244 112.444C96.2002 112.632 96.2881 112.863 96.2881 113.139C96.2881 113.408 96.2002 113.637 96.0244 113.824C95.8545 114.012 95.6055 114.105 95.2773 114.105C94.9492 114.105 94.6973 114.012 94.5215 113.824C94.3516 113.637 94.2666 113.408 94.2666 113.139ZM94.2754 105.378C94.2754 105.103 94.3604 104.871 94.5303 104.684C94.7061 104.49 94.958 104.394 95.2861 104.394C95.6143 104.394 95.8633 104.49 96.0332 104.684C96.209 104.871 96.2969 105.103 96.2969 105.378C96.2969 105.647 96.209 105.876 96.0332 106.063C95.8633 106.251 95.6143 106.345 95.2861 106.345C94.958 106.345 94.7061 106.251 94.5303 106.063C94.3604 105.876 94.2754 105.647 94.2754 105.378ZM104.356 101.203L99.0215 115.099H97.624L102.968 101.203H104.356ZM109.823 101.203L104.488 115.099H103.091L108.435 101.203H109.823ZM113.216 106.38V114H111.581V104.49H113.128L113.216 106.38ZM112.882 108.885L112.126 108.858C112.132 108.208 112.217 107.607 112.381 107.057C112.545 106.5 112.788 106.017 113.11 105.606C113.433 105.196 113.834 104.88 114.314 104.657C114.795 104.429 115.352 104.314 115.984 104.314C116.43 104.314 116.84 104.379 117.215 104.508C117.59 104.631 117.915 104.827 118.19 105.097C118.466 105.366 118.68 105.712 118.832 106.134C118.984 106.556 119.061 107.065 119.061 107.663V114H117.435V107.742C117.435 107.244 117.35 106.846 117.18 106.547C117.016 106.248 116.781 106.031 116.477 105.896C116.172 105.756 115.814 105.686 115.404 105.686C114.924 105.686 114.522 105.771 114.2 105.94C113.878 106.11 113.62 106.345 113.427 106.644C113.233 106.942 113.093 107.285 113.005 107.672C112.923 108.053 112.882 108.457 112.882 108.885ZM119.043 107.988L117.953 108.322C117.959 107.801 118.044 107.3 118.208 106.819C118.378 106.339 118.621 105.911 118.938 105.536C119.26 105.161 119.655 104.865 120.124 104.648C120.593 104.426 121.129 104.314 121.732 104.314C122.242 104.314 122.693 104.382 123.086 104.517C123.484 104.651 123.818 104.859 124.088 105.141C124.363 105.416 124.571 105.771 124.712 106.204C124.853 106.638 124.923 107.153 124.923 107.751V114H123.288V107.733C123.288 107.2 123.203 106.787 123.033 106.494C122.869 106.195 122.635 105.987 122.33 105.87C122.031 105.747 121.674 105.686 121.258 105.686C120.9 105.686 120.584 105.747 120.309 105.87C120.033 105.993 119.802 106.163 119.614 106.38C119.427 106.591 119.283 106.834 119.184 107.109C119.09 107.385 119.043 107.678 119.043 107.988ZM131.33 114.176C130.668 114.176 130.067 114.064 129.528 113.842C128.995 113.613 128.535 113.294 128.148 112.884C127.768 112.474 127.475 111.987 127.27 111.425C127.064 110.862 126.962 110.247 126.962 109.579V109.21C126.962 108.437 127.076 107.748 127.305 107.145C127.533 106.535 127.844 106.02 128.236 105.598C128.629 105.176 129.074 104.856 129.572 104.64C130.07 104.423 130.586 104.314 131.119 104.314C131.799 104.314 132.385 104.432 132.877 104.666C133.375 104.9 133.782 105.229 134.099 105.65C134.415 106.066 134.649 106.559 134.802 107.127C134.954 107.689 135.03 108.305 135.03 108.973V109.702H127.929V108.375H133.404V108.252C133.381 107.83 133.293 107.42 133.141 107.021C132.994 106.623 132.76 106.295 132.438 106.037C132.115 105.779 131.676 105.65 131.119 105.65C130.75 105.65 130.41 105.729 130.1 105.888C129.789 106.04 129.522 106.269 129.3 106.573C129.077 106.878 128.904 107.25 128.781 107.689C128.658 108.129 128.597 108.636 128.597 109.21V109.579C128.597 110.03 128.658 110.455 128.781 110.854C128.91 111.246 129.095 111.592 129.335 111.891C129.581 112.189 129.877 112.424 130.223 112.594C130.574 112.764 130.973 112.849 131.418 112.849C131.992 112.849 132.479 112.731 132.877 112.497C133.275 112.263 133.624 111.949 133.923 111.557L134.907 112.339C134.702 112.649 134.441 112.945 134.125 113.227C133.809 113.508 133.419 113.736 132.956 113.912C132.499 114.088 131.957 114.176 131.33 114.176ZM138.555 106.521V114H136.929V104.49H138.467L138.555 106.521ZM138.168 108.885L137.491 108.858C137.497 108.208 137.594 107.607 137.781 107.057C137.969 106.5 138.232 106.017 138.572 105.606C138.912 105.196 139.316 104.88 139.785 104.657C140.26 104.429 140.784 104.314 141.358 104.314C141.827 104.314 142.249 104.379 142.624 104.508C142.999 104.631 143.318 104.83 143.582 105.105C143.852 105.381 144.057 105.738 144.197 106.178C144.338 106.611 144.408 107.142 144.408 107.769V114H142.773V107.751C142.773 107.253 142.7 106.854 142.554 106.556C142.407 106.251 142.193 106.031 141.912 105.896C141.631 105.756 141.285 105.686 140.875 105.686C140.471 105.686 140.102 105.771 139.768 105.94C139.439 106.11 139.155 106.345 138.915 106.644C138.681 106.942 138.496 107.285 138.361 107.672C138.232 108.053 138.168 108.457 138.168 108.885ZM150.859 104.49V105.738H145.718V104.49H150.859ZM147.458 102.179H149.084V111.645C149.084 111.967 149.134 112.21 149.233 112.374C149.333 112.538 149.462 112.646 149.62 112.699C149.778 112.752 149.948 112.778 150.13 112.778C150.265 112.778 150.405 112.767 150.552 112.743C150.704 112.714 150.818 112.69 150.895 112.673L150.903 114C150.774 114.041 150.604 114.079 150.394 114.114C150.188 114.155 149.939 114.176 149.646 114.176C149.248 114.176 148.882 114.097 148.548 113.938C148.214 113.78 147.947 113.517 147.748 113.147C147.555 112.772 147.458 112.269 147.458 111.636V102.179ZM152.16 109.351V109.148C152.16 108.463 152.26 107.827 152.459 107.241C152.658 106.649 152.945 106.137 153.32 105.703C153.695 105.264 154.149 104.924 154.683 104.684C155.216 104.438 155.813 104.314 156.476 104.314C157.144 104.314 157.744 104.438 158.277 104.684C158.816 104.924 159.273 105.264 159.648 105.703C160.029 106.137 160.319 106.649 160.519 107.241C160.718 107.827 160.817 108.463 160.817 109.148V109.351C160.817 110.036 160.718 110.672 160.519 111.258C160.319 111.844 160.029 112.356 159.648 112.796C159.273 113.229 158.819 113.569 158.286 113.815C157.759 114.056 157.161 114.176 156.493 114.176C155.825 114.176 155.225 114.056 154.691 113.815C154.158 113.569 153.701 113.229 153.32 112.796C152.945 112.356 152.658 111.844 152.459 111.258C152.26 110.672 152.16 110.036 152.16 109.351ZM153.786 109.148V109.351C153.786 109.825 153.842 110.273 153.953 110.695C154.064 111.111 154.231 111.48 154.454 111.803C154.683 112.125 154.967 112.38 155.307 112.567C155.646 112.749 156.042 112.84 156.493 112.84C156.938 112.84 157.328 112.749 157.662 112.567C158.002 112.38 158.283 112.125 158.506 111.803C158.729 111.48 158.896 111.111 159.007 110.695C159.124 110.273 159.183 109.825 159.183 109.351V109.148C159.183 108.68 159.124 108.237 159.007 107.821C158.896 107.399 158.726 107.027 158.497 106.705C158.274 106.377 157.993 106.119 157.653 105.932C157.319 105.744 156.927 105.65 156.476 105.65C156.03 105.65 155.638 105.744 155.298 105.932C154.964 106.119 154.683 106.377 154.454 106.705C154.231 107.027 154.064 107.399 153.953 107.821C153.842 108.237 153.786 108.68 153.786 109.148ZM164.482 105.984V114H162.856V104.49H164.438L164.482 105.984ZM167.453 104.438L167.444 105.949C167.31 105.92 167.181 105.902 167.058 105.896C166.94 105.885 166.806 105.879 166.653 105.879C166.278 105.879 165.947 105.938 165.66 106.055C165.373 106.172 165.13 106.336 164.931 106.547C164.731 106.758 164.573 107.01 164.456 107.303C164.345 107.59 164.271 107.906 164.236 108.252L163.779 108.516C163.779 107.941 163.835 107.402 163.946 106.898C164.063 106.395 164.242 105.949 164.482 105.562C164.723 105.17 165.027 104.865 165.396 104.648C165.771 104.426 166.217 104.314 166.732 104.314C166.85 104.314 166.984 104.329 167.137 104.358C167.289 104.382 167.395 104.408 167.453 104.438ZM167.893 113.139C167.893 112.863 167.978 112.632 168.147 112.444C168.323 112.251 168.575 112.154 168.903 112.154C169.231 112.154 169.48 112.251 169.65 112.444C169.826 112.632 169.914 112.863 169.914 113.139C169.914 113.408 169.826 113.637 169.65 113.824C169.48 114.012 169.231 114.105 168.903 114.105C168.575 114.105 168.323 114.012 168.147 113.824C167.978 113.637 167.893 113.408 167.893 113.139ZM176.418 112.84C176.805 112.84 177.162 112.761 177.49 112.603C177.818 112.444 178.088 112.228 178.299 111.952C178.51 111.671 178.63 111.352 178.659 110.994H180.206C180.177 111.557 179.986 112.081 179.635 112.567C179.289 113.048 178.835 113.438 178.272 113.736C177.71 114.029 177.092 114.176 176.418 114.176C175.703 114.176 175.079 114.05 174.546 113.798C174.019 113.546 173.579 113.2 173.228 112.761C172.882 112.321 172.621 111.817 172.445 111.249C172.275 110.675 172.19 110.068 172.19 109.43V109.061C172.19 108.422 172.275 107.818 172.445 107.25C172.621 106.676 172.882 106.169 173.228 105.729C173.579 105.29 174.019 104.944 174.546 104.692C175.079 104.44 175.703 104.314 176.418 104.314C177.162 104.314 177.812 104.467 178.369 104.771C178.926 105.07 179.362 105.48 179.679 106.002C180.001 106.518 180.177 107.104 180.206 107.76H178.659C178.63 107.367 178.519 107.013 178.325 106.696C178.138 106.38 177.88 106.128 177.552 105.94C177.229 105.747 176.852 105.65 176.418 105.65C175.92 105.65 175.501 105.75 175.161 105.949C174.827 106.143 174.561 106.406 174.361 106.74C174.168 107.068 174.027 107.435 173.939 107.839C173.857 108.237 173.816 108.645 173.816 109.061V109.43C173.816 109.846 173.857 110.256 173.939 110.66C174.021 111.064 174.159 111.431 174.353 111.759C174.552 112.087 174.818 112.351 175.152 112.55C175.492 112.743 175.914 112.84 176.418 112.84ZM181.604 109.351V109.148C181.604 108.463 181.703 107.827 181.902 107.241C182.102 106.649 182.389 106.137 182.764 105.703C183.139 105.264 183.593 104.924 184.126 104.684C184.659 104.438 185.257 104.314 185.919 104.314C186.587 104.314 187.188 104.438 187.721 104.684C188.26 104.924 188.717 105.264 189.092 105.703C189.473 106.137 189.763 106.649 189.962 107.241C190.161 107.827 190.261 108.463 190.261 109.148V109.351C190.261 110.036 190.161 110.672 189.962 111.258C189.763 111.844 189.473 112.356 189.092 112.796C188.717 113.229 188.263 113.569 187.729 113.815C187.202 114.056 186.604 114.176 185.937 114.176C185.269 114.176 184.668 114.056 184.135 113.815C183.602 113.569 183.145 113.229 182.764 112.796C182.389 112.356 182.102 111.844 181.902 111.258C181.703 110.672 181.604 110.036 181.604 109.351ZM183.229 109.148V109.351C183.229 109.825 183.285 110.273 183.396 110.695C183.508 111.111 183.675 111.48 183.897 111.803C184.126 112.125 184.41 112.38 184.75 112.567C185.09 112.749 185.485 112.84 185.937 112.84C186.382 112.84 186.771 112.749 187.105 112.567C187.445 112.38 187.727 112.125 187.949 111.803C188.172 111.48 188.339 111.111 188.45 110.695C188.567 110.273 188.626 109.825 188.626 109.351V109.148C188.626 108.68 188.567 108.237 188.45 107.821C188.339 107.399 188.169 107.027 187.94 106.705C187.718 106.377 187.437 106.119 187.097 105.932C186.763 105.744 186.37 105.65 185.919 105.65C185.474 105.65 185.081 105.744 184.741 105.932C184.407 106.119 184.126 106.377 183.897 106.705C183.675 107.027 183.508 107.399 183.396 107.821C183.285 108.237 183.229 108.68 183.229 109.148ZM193.917 106.38V114H192.282V104.49H193.829L193.917 106.38ZM193.583 108.885L192.827 108.858C192.833 108.208 192.918 107.607 193.082 107.057C193.246 106.5 193.489 106.017 193.812 105.606C194.134 105.196 194.535 104.88 195.016 104.657C195.496 104.429 196.053 104.314 196.686 104.314C197.131 104.314 197.541 104.379 197.916 104.508C198.291 104.631 198.616 104.827 198.892 105.097C199.167 105.366 199.381 105.712 199.533 106.134C199.686 106.556 199.762 107.065 199.762 107.663V114H198.136V107.742C198.136 107.244 198.051 106.846 197.881 106.547C197.717 106.248 197.482 106.031 197.178 105.896C196.873 105.756 196.516 105.686 196.105 105.686C195.625 105.686 195.224 105.771 194.901 105.94C194.579 106.11 194.321 106.345 194.128 106.644C193.935 106.942 193.794 107.285 193.706 107.672C193.624 108.053 193.583 108.457 193.583 108.885ZM199.744 107.988L198.654 108.322C198.66 107.801 198.745 107.3 198.909 106.819C199.079 106.339 199.322 105.911 199.639 105.536C199.961 105.161 200.356 104.865 200.825 104.648C201.294 104.426 201.83 104.314 202.434 104.314C202.943 104.314 203.395 104.382 203.787 104.517C204.186 104.651 204.52 104.859 204.789 105.141C205.064 105.416 205.272 105.771 205.413 106.204C205.554 106.638 205.624 107.153 205.624 107.751V114H203.989V107.733C203.989 107.2 203.904 106.787 203.734 106.494C203.57 106.195 203.336 105.987 203.031 105.87C202.732 105.747 202.375 105.686 201.959 105.686C201.602 105.686 201.285 105.747 201.01 105.87C200.734 105.993 200.503 106.163 200.315 106.38C200.128 106.591 199.984 106.834 199.885 107.109C199.791 107.385 199.744 107.678 199.744 107.988Z" fill="#989898"/>
<path d="M213.745 101.203L208.41 115.099H207.013L212.356 101.203H213.745ZM220.407 111.372C220.407 111.19 220.354 111.026 220.249 110.88C220.144 110.733 219.947 110.599 219.66 110.476C219.379 110.347 218.972 110.229 218.438 110.124C217.958 110.019 217.51 109.887 217.094 109.729C216.684 109.564 216.326 109.368 216.021 109.14C215.723 108.911 215.488 108.642 215.318 108.331C215.148 108.015 215.063 107.654 215.063 107.25C215.063 106.852 215.148 106.477 215.318 106.125C215.494 105.773 215.743 105.463 216.065 105.193C216.394 104.918 216.792 104.704 217.261 104.552C217.735 104.394 218.269 104.314 218.86 104.314C219.687 104.314 220.396 104.446 220.987 104.71C221.585 104.974 222.042 105.337 222.358 105.8C222.681 106.257 222.842 106.778 222.842 107.364H220.311C220.311 107.118 220.258 106.898 220.152 106.705C220.053 106.506 219.895 106.351 219.678 106.239C219.467 106.122 219.191 106.063 218.852 106.063C218.57 106.063 218.327 106.113 218.122 106.213C217.917 106.307 217.759 106.436 217.647 106.6C217.542 106.758 217.489 106.934 217.489 107.127C217.489 107.273 217.519 107.405 217.577 107.522C217.642 107.634 217.744 107.736 217.885 107.83C218.025 107.924 218.207 108.012 218.43 108.094C218.658 108.17 218.939 108.24 219.273 108.305C219.959 108.445 220.571 108.63 221.11 108.858C221.649 109.081 222.077 109.386 222.394 109.772C222.71 110.153 222.868 110.654 222.868 111.275C222.868 111.697 222.774 112.084 222.587 112.436C222.399 112.787 222.13 113.095 221.778 113.358C221.427 113.616 221.005 113.818 220.513 113.965C220.026 114.105 219.479 114.176 218.869 114.176C217.984 114.176 217.234 114.018 216.619 113.701C216.01 113.385 215.547 112.983 215.23 112.497C214.92 112.005 214.765 111.501 214.765 110.985H217.164C217.176 111.331 217.264 111.609 217.428 111.82C217.598 112.031 217.812 112.184 218.069 112.277C218.333 112.371 218.617 112.418 218.922 112.418C219.25 112.418 219.522 112.374 219.739 112.286C219.956 112.192 220.12 112.069 220.231 111.917C220.349 111.759 220.407 111.577 220.407 111.372ZM228.889 114.176C228.15 114.176 227.488 114.059 226.902 113.824C226.316 113.584 225.818 113.253 225.408 112.831C225.004 112.409 224.693 111.92 224.477 111.363C224.26 110.801 224.151 110.203 224.151 109.57V109.219C224.151 108.498 224.254 107.839 224.459 107.241C224.664 106.644 224.957 106.125 225.338 105.686C225.725 105.246 226.193 104.909 226.744 104.675C227.295 104.435 227.916 104.314 228.607 104.314C229.281 104.314 229.879 104.426 230.4 104.648C230.922 104.871 231.358 105.188 231.71 105.598C232.067 106.008 232.337 106.5 232.519 107.074C232.7 107.643 232.791 108.275 232.791 108.973V110.027H225.232V108.34H230.304V108.146C230.304 107.795 230.239 107.481 230.11 107.206C229.987 106.925 229.8 106.702 229.548 106.538C229.296 106.374 228.974 106.292 228.581 106.292C228.247 106.292 227.96 106.365 227.72 106.512C227.479 106.658 227.283 106.863 227.131 107.127C226.984 107.391 226.873 107.701 226.797 108.059C226.727 108.41 226.691 108.797 226.691 109.219V109.57C226.691 109.951 226.744 110.303 226.85 110.625C226.961 110.947 227.116 111.226 227.315 111.46C227.521 111.694 227.767 111.876 228.054 112.005C228.347 112.134 228.678 112.198 229.047 112.198C229.504 112.198 229.929 112.11 230.321 111.935C230.72 111.753 231.062 111.48 231.35 111.117L232.58 112.453C232.381 112.74 232.108 113.016 231.763 113.279C231.423 113.543 231.013 113.76 230.532 113.93C230.052 114.094 229.504 114.176 228.889 114.176ZM239.857 111.724V104.49H242.389V114H240.007L239.857 111.724ZM240.139 109.772L240.886 109.755C240.886 110.388 240.812 110.977 240.666 111.521C240.52 112.061 240.3 112.529 240.007 112.928C239.714 113.32 239.345 113.628 238.899 113.851C238.454 114.067 237.93 114.176 237.326 114.176C236.863 114.176 236.436 114.111 236.043 113.982C235.656 113.848 235.322 113.64 235.041 113.358C234.766 113.071 234.549 112.705 234.391 112.26C234.238 111.809 234.162 111.267 234.162 110.634V104.49H236.693V110.651C236.693 110.933 236.726 111.17 236.79 111.363C236.86 111.557 236.957 111.715 237.08 111.838C237.203 111.961 237.347 112.049 237.511 112.102C237.681 112.154 237.868 112.181 238.073 112.181C238.595 112.181 239.005 112.075 239.304 111.864C239.608 111.653 239.822 111.366 239.945 111.003C240.074 110.634 240.139 110.224 240.139 109.772ZM246.994 100.5V114H244.454V100.5H246.994ZM251.758 104.49V114H249.218V104.49H251.758ZM249.06 102.012C249.06 101.643 249.188 101.338 249.446 101.098C249.704 100.857 250.05 100.737 250.483 100.737C250.911 100.737 251.254 100.857 251.512 101.098C251.775 101.338 251.907 101.643 251.907 102.012C251.907 102.381 251.775 102.686 251.512 102.926C251.254 103.166 250.911 103.286 250.483 103.286C250.05 103.286 249.704 103.166 249.446 102.926C249.188 102.686 249.06 102.381 249.06 102.012ZM256.328 106.521V114H253.797V104.49H256.17L256.328 106.521ZM255.959 108.911H255.273C255.273 108.208 255.364 107.575 255.546 107.013C255.728 106.444 255.982 105.961 256.311 105.562C256.639 105.158 257.028 104.851 257.479 104.64C257.937 104.423 258.446 104.314 259.009 104.314C259.454 104.314 259.861 104.379 260.23 104.508C260.6 104.637 260.916 104.842 261.18 105.123C261.449 105.404 261.654 105.776 261.795 106.239C261.941 106.702 262.015 107.268 262.015 107.936V114H259.466V107.927C259.466 107.505 259.407 107.177 259.29 106.942C259.173 106.708 259 106.544 258.771 106.45C258.549 106.351 258.273 106.301 257.945 106.301C257.605 106.301 257.31 106.368 257.058 106.503C256.812 106.638 256.606 106.825 256.442 107.065C256.284 107.3 256.164 107.575 256.082 107.892C256 108.208 255.959 108.548 255.959 108.911ZM266.471 100.491V114H263.939V100.491H266.471ZM272.465 104.49L268.334 109.201L266.119 111.442L265.196 109.614L266.954 107.382L269.424 104.49H272.465ZM269.837 114L267.024 109.605L268.773 108.076L272.755 114H269.837Z" fill="#1D2730"/>
<circle cx="248" cy="106" r="49" stroke="#07C9C9" stroke-width="4"/>
<defs>
<filter id="filter0_f_1_64" x="0" y="0" width="346" height="213" filterUnits="userSpaceOnUse" color-interpolation-filters="sRGB">
<feFlood flood-opacity="0" result="BackgroundImageFix"/>
<feBlend mode="normal" in="SourceGraphic" in2="BackgroundImageFix" result="shape"/>
<feGaussianBlur stdDeviation="30" result="effect1_foregroundBlur_1_64"/>
</filter>
<filter id="filter1_d_1_64" x="26" y="78" width="278" height="86.1375" filterUnits="userSpaceOnUse" color-interpolation-filters="sRGB">
<feFlood flood-opacity="0" result="BackgroundImageFix"/>
<feColorMatrix in="SourceAlpha" type="matrix" values="0 0 0 0 0 0 0 0 0 0 0 0 0 0 0 0 0 0 127 0" result="hardAlpha"/>
<feOffset dx="2" dy="2"/>
<feGaussianBlur stdDeviation="4"/>
<feComposite in2="hardAlpha" operator="out"/>
<feColorMatrix type="matrix" values="0 0 0 0 0 0 0 0 0 0 0 0 0 0 0 0 0 0 0.1 0"/>
<feBlend mode="normal" in2="BackgroundImageFix" result="effect1_dropShadow_1_64"/>
<feBlend mode="normal" in="SourceGraphic" in2="effect1_dropShadow_1_64" result="shape"/>
</filter>
<linearGradient id="paint0_linear_1_64" x1="222" y1="103" x2="56.5" y2="103.5" gradientUnits="userSpaceOnUse">
<stop stop-color="white"/>
<stop offset="0.493895" stop-color="white" stop-opacity="0.26"/>
<stop offset="1" stop-color="white" stop-opacity="0"/>
</linearGradient>
</defs>
</svg>
