<svg width="308" height="198" viewBox="0 0 308 198" fill="none" xmlns="http://www.w3.org/2000/svg">
<path fill-rule="evenodd" clip-rule="evenodd" d="M10 52C4.47715 52 0 56.4772 0 62V90C0 94.2883 2.69928 97.9462 6.49145 99.3672L19.6379 122.137L32.419 100H252C257.523 100 262 95.5229 262 90V62C262 56.4772 257.523 52 252 52H10Z" fill="#D9D9D9"/>
<path d="M25.1816 68.5V82H23.0723V68.5H25.1816ZM24.8125 76.8936L24.127 76.8848C24.1328 76.2285 24.2236 75.6221 24.3994 75.0654C24.5811 74.5088 24.833 74.0254 25.1553 73.6152C25.4834 73.1992 25.876 72.8799 26.333 72.6572C26.79 72.4287 27.2969 72.3145 27.8535 72.3145C28.3223 72.3145 28.7441 72.3789 29.1191 72.5078C29.5 72.6367 29.8281 72.8447 30.1035 73.1318C30.3789 73.4131 30.5869 73.7822 30.7275 74.2393C30.874 74.6904 30.9473 75.2412 30.9473 75.8916V82H28.8203V75.874C28.8203 75.417 28.7529 75.0537 28.6182 74.7842C28.4893 74.5146 28.2988 74.3213 28.0469 74.2041C27.7949 74.0811 27.4873 74.0195 27.124 74.0195C26.7432 74.0195 26.4062 74.0957 26.1133 74.248C25.8262 74.4004 25.5859 74.6084 25.3926 74.8721C25.1992 75.1357 25.0527 75.4404 24.9531 75.7861C24.8594 76.1318 24.8125 76.501 24.8125 76.8936ZM37.4512 72.4902V74.0371H32.0898V72.4902H37.4512ZM33.6367 70.1611H35.7549V79.3721C35.7549 79.665 35.7959 79.8906 35.8779 80.0488C35.9658 80.2012 36.0859 80.3037 36.2383 80.3564C36.3906 80.4092 36.5693 80.4355 36.7744 80.4355C36.9209 80.4355 37.0615 80.4268 37.1963 80.4092C37.3311 80.3916 37.4395 80.374 37.5215 80.3564L37.5303 81.9736C37.3545 82.0264 37.1494 82.0732 36.915 82.1143C36.6865 82.1553 36.4229 82.1758 36.124 82.1758C35.6377 82.1758 35.207 82.0908 34.832 81.9209C34.457 81.7451 34.1641 81.4609 33.9531 81.0684C33.7422 80.6758 33.6367 80.1543 33.6367 79.5039V70.1611ZM43.4453 72.4902V74.0371H38.084V72.4902H43.4453ZM39.6309 70.1611H41.749V79.3721C41.749 79.665 41.79 79.8906 41.8721 80.0488C41.96 80.2012 42.0801 80.3037 42.2324 80.3564C42.3848 80.4092 42.5635 80.4355 42.7686 80.4355C42.915 80.4355 43.0557 80.4268 43.1904 80.4092C43.3252 80.3916 43.4336 80.374 43.5156 80.3564L43.5244 81.9736C43.3486 82.0264 43.1436 82.0732 42.9092 82.1143C42.6807 82.1553 42.417 82.1758 42.1182 82.1758C41.6318 82.1758 41.2012 82.0908 40.8262 81.9209C40.4512 81.7451 40.1582 81.4609 39.9473 81.0684C39.7363 80.6758 39.6309 80.1543 39.6309 79.5039V70.1611ZM47.207 74.3184V85.6562H45.0889V72.4902H47.04L47.207 74.3184ZM53.4033 77.1572V77.3418C53.4033 78.0332 53.3213 78.6748 53.1572 79.2666C52.999 79.8525 52.7617 80.3652 52.4453 80.8047C52.1348 81.2383 51.751 81.5752 51.2939 81.8154C50.8369 82.0557 50.3096 82.1758 49.7119 82.1758C49.1201 82.1758 48.6016 82.0674 48.1562 81.8506C47.7168 81.6279 47.3447 81.3145 47.04 80.9102C46.7354 80.5059 46.4893 80.0312 46.3018 79.4863C46.1201 78.9355 45.9912 78.332 45.915 77.6758V76.9639C45.9912 76.2666 46.1201 75.6338 46.3018 75.0654C46.4893 74.4971 46.7354 74.0078 47.04 73.5977C47.3447 73.1875 47.7168 72.8711 48.1562 72.6484C48.5957 72.4258 49.1084 72.3145 49.6943 72.3145C50.292 72.3145 50.8223 72.4316 51.2852 72.666C51.748 72.8945 52.1377 73.2227 52.4541 73.6504C52.7705 74.0723 53.0078 74.582 53.166 75.1797C53.3242 75.7715 53.4033 76.4307 53.4033 77.1572ZM51.2852 77.3418V77.1572C51.2852 76.7178 51.2441 76.3105 51.1621 75.9355C51.0801 75.5547 50.9512 75.2207 50.7754 74.9336C50.5996 74.6465 50.374 74.4238 50.0986 74.2656C49.8291 74.1016 49.5039 74.0195 49.123 74.0195C48.748 74.0195 48.4258 74.084 48.1562 74.2129C47.8867 74.3359 47.6611 74.5088 47.4795 74.7314C47.2979 74.9541 47.1572 75.2148 47.0576 75.5137C46.958 75.8066 46.8877 76.126 46.8467 76.4717V78.1768C46.917 78.5986 47.0371 78.9854 47.207 79.3369C47.377 79.6885 47.6172 79.9697 47.9277 80.1807C48.2441 80.3857 48.6484 80.4883 49.1406 80.4883C49.5215 80.4883 49.8467 80.4062 50.1162 80.2422C50.3857 80.0781 50.6055 79.8525 50.7754 79.5654C50.9512 79.2725 51.0801 78.9355 51.1621 78.5547C51.2441 78.1738 51.2852 77.7695 51.2852 77.3418ZM60.54 79.4248C60.54 79.2139 60.4873 79.0234 60.3818 78.8535C60.2764 78.6777 60.0742 78.5195 59.7754 78.3789C59.4824 78.2383 59.0488 78.1094 58.4746 77.9922C57.9707 77.8809 57.5078 77.749 57.0859 77.5967C56.6699 77.4385 56.3125 77.248 56.0137 77.0254C55.7148 76.8027 55.4834 76.5391 55.3193 76.2344C55.1553 75.9297 55.0732 75.5781 55.0732 75.1797C55.0732 74.793 55.1582 74.4268 55.3281 74.0811C55.498 73.7354 55.7412 73.4307 56.0576 73.167C56.374 72.9033 56.7578 72.6953 57.209 72.543C57.666 72.3906 58.1758 72.3145 58.7383 72.3145C59.5352 72.3145 60.2178 72.4492 60.7861 72.7188C61.3604 72.9824 61.7998 73.3428 62.1045 73.7998C62.4092 74.251 62.5615 74.7607 62.5615 75.3291H60.4434C60.4434 75.0771 60.3789 74.8428 60.25 74.626C60.127 74.4033 59.9395 74.2246 59.6875 74.0898C59.4355 73.9492 59.1191 73.8789 58.7383 73.8789C58.375 73.8789 58.0732 73.9375 57.833 74.0547C57.5986 74.166 57.4229 74.3125 57.3057 74.4941C57.1943 74.6758 57.1387 74.875 57.1387 75.0918C57.1387 75.25 57.168 75.3936 57.2266 75.5225C57.291 75.6455 57.3965 75.7598 57.543 75.8652C57.6895 75.9648 57.8887 76.0586 58.1406 76.1465C58.3984 76.2344 58.7207 76.3193 59.1074 76.4014C59.834 76.5537 60.458 76.75 60.9795 76.9902C61.5068 77.2246 61.9111 77.5293 62.1924 77.9043C62.4736 78.2734 62.6143 78.7422 62.6143 79.3105C62.6143 79.7324 62.5234 80.1191 62.3418 80.4707C62.166 80.8164 61.9082 81.1182 61.5684 81.376C61.2285 81.6279 60.8213 81.8242 60.3467 81.9648C59.8779 82.1055 59.3506 82.1758 58.7646 82.1758C57.9033 82.1758 57.1738 82.0234 56.5762 81.7188C55.9785 81.4082 55.5244 81.0127 55.2139 80.5322C54.9092 80.0459 54.7568 79.542 54.7568 79.0205H56.8047C56.8281 79.4131 56.9365 79.7266 57.1299 79.9609C57.3291 80.1895 57.5752 80.3564 57.8682 80.4619C58.167 80.5615 58.4746 80.6113 58.791 80.6113C59.1719 80.6113 59.4912 80.5615 59.749 80.4619C60.0068 80.3564 60.2031 80.2158 60.3379 80.04C60.4727 79.8584 60.54 79.6533 60.54 79.4248ZM64.4951 80.9453C64.4951 80.6172 64.6064 80.3418 64.8291 80.1191C65.0518 79.8906 65.3535 79.7764 65.7344 79.7764C66.1211 79.7764 66.4229 79.8906 66.6396 80.1191C66.8623 80.3418 66.9736 80.6172 66.9736 80.9453C66.9736 81.2734 66.8623 81.5488 66.6396 81.7715C66.4229 81.9941 66.1211 82.1055 65.7344 82.1055C65.3535 82.1055 65.0518 81.9941 64.8291 81.7715C64.6064 81.5488 64.4951 81.2734 64.4951 80.9453ZM64.5039 73.457C64.5039 73.1289 64.6152 72.8535 64.8379 72.6309C65.0605 72.4023 65.3623 72.2881 65.7432 72.2881C66.1299 72.2881 66.4316 72.4023 66.6484 72.6309C66.8711 72.8535 66.9824 73.1289 66.9824 73.457C66.9824 73.7852 66.8711 74.0605 66.6484 74.2832C66.4316 74.5059 66.1299 74.6172 65.7432 74.6172C65.3623 74.6172 65.0605 74.5059 64.8379 74.2832C64.6152 74.0605 64.5039 73.7852 64.5039 73.457ZM74.7783 69.2031L69.7949 83.0986H68.1338L73.126 69.2031H74.7783ZM79.7705 69.2031L74.7871 83.0986H73.126L78.1182 69.2031H79.7705ZM87.0391 80.0312V68.5H89.166V82H87.2412L87.0391 80.0312ZM80.8516 77.3506V77.166C80.8516 76.4453 80.9365 75.7891 81.1064 75.1973C81.2764 74.5996 81.5225 74.0869 81.8447 73.6592C82.167 73.2256 82.5596 72.8945 83.0225 72.666C83.4854 72.4316 84.0068 72.3145 84.5869 72.3145C85.1611 72.3145 85.665 72.4258 86.0986 72.6484C86.5322 72.8711 86.9014 73.1904 87.2061 73.6064C87.5107 74.0166 87.7539 74.5088 87.9355 75.083C88.1172 75.6514 88.2461 76.2842 88.3223 76.9814V77.5703C88.2461 78.25 88.1172 78.8711 87.9355 79.4336C87.7539 79.9961 87.5107 80.4824 87.2061 80.8926C86.9014 81.3027 86.5293 81.6191 86.0898 81.8418C85.6562 82.0645 85.1494 82.1758 84.5693 82.1758C83.9951 82.1758 83.4766 82.0557 83.0137 81.8154C82.5566 81.5752 82.167 81.2383 81.8447 80.8047C81.5225 80.3711 81.2764 79.8613 81.1064 79.2754C80.9365 78.6836 80.8516 78.042 80.8516 77.3506ZM82.9697 77.166V77.3506C82.9697 77.7842 83.0078 78.1885 83.084 78.5635C83.166 78.9385 83.292 79.2695 83.4619 79.5566C83.6318 79.8379 83.8516 80.0605 84.1211 80.2246C84.3965 80.3828 84.7246 80.4619 85.1055 80.4619C85.5859 80.4619 85.9814 80.3564 86.292 80.1455C86.6025 79.9346 86.8457 79.6504 87.0215 79.293C87.2031 78.9297 87.3262 78.5254 87.3906 78.0801V76.4893C87.3555 76.1436 87.2822 75.8213 87.1709 75.5225C87.0654 75.2236 86.9219 74.9629 86.7402 74.7402C86.5586 74.5117 86.333 74.3359 86.0635 74.2129C85.7998 74.084 85.4863 74.0195 85.123 74.0195C84.7363 74.0195 84.4082 74.1016 84.1387 74.2656C83.8691 74.4297 83.6465 74.6553 83.4707 74.9424C83.3008 75.2295 83.1748 75.5635 83.0928 75.9443C83.0107 76.3252 82.9697 76.7324 82.9697 77.166ZM95.5732 82.1758C94.8701 82.1758 94.2344 82.0615 93.666 81.833C93.1035 81.5986 92.623 81.2734 92.2246 80.8574C91.832 80.4414 91.5303 79.9521 91.3193 79.3896C91.1084 78.8271 91.0029 78.2207 91.0029 77.5703V77.2188C91.0029 76.4746 91.1113 75.8008 91.3281 75.1973C91.5449 74.5938 91.8467 74.0781 92.2334 73.6504C92.6201 73.2168 93.0771 72.8857 93.6045 72.6572C94.1318 72.4287 94.7031 72.3145 95.3184 72.3145C95.998 72.3145 96.5928 72.4287 97.1025 72.6572C97.6123 72.8857 98.0342 73.208 98.3682 73.624C98.708 74.0342 98.96 74.5234 99.124 75.0918C99.2939 75.6602 99.3789 76.2871 99.3789 76.9727V77.8779H92.0312V76.3574H97.2871V76.1904C97.2754 75.8096 97.1992 75.4521 97.0586 75.1182C96.9238 74.7842 96.7158 74.5146 96.4346 74.3096C96.1533 74.1045 95.7783 74.002 95.3096 74.002C94.958 74.002 94.6445 74.0781 94.3691 74.2305C94.0996 74.377 93.874 74.5908 93.6924 74.8721C93.5107 75.1533 93.3701 75.4932 93.2705 75.8916C93.1768 76.2842 93.1299 76.7266 93.1299 77.2188V77.5703C93.1299 77.9863 93.1855 78.373 93.2969 78.7305C93.4141 79.082 93.584 79.3896 93.8066 79.6533C94.0293 79.917 94.2988 80.125 94.6152 80.2773C94.9316 80.4238 95.292 80.4971 95.6963 80.4971C96.2061 80.4971 96.6602 80.3945 97.0586 80.1895C97.457 79.9844 97.8027 79.6943 98.0957 79.3193L99.2119 80.4004C99.0068 80.6992 98.7402 80.9863 98.4121 81.2617C98.084 81.5312 97.6826 81.751 97.208 81.9209C96.7393 82.0908 96.1943 82.1758 95.5732 82.1758ZM104.002 80.3213L106.331 72.4902H108.528L105.224 82H103.853L104.002 80.3213ZM102.218 72.4902L104.591 80.3564L104.705 82H103.334L100.012 72.4902H102.218ZM111.956 74.4238V82H109.838V72.4902H111.833L111.956 74.4238ZM111.613 76.8936L110.893 76.8848C110.893 76.2285 110.975 75.6221 111.139 75.0654C111.303 74.5088 111.543 74.0254 111.859 73.6152C112.176 73.1992 112.568 72.8799 113.037 72.6572C113.512 72.4287 114.06 72.3145 114.681 72.3145C115.114 72.3145 115.51 72.3789 115.867 72.5078C116.23 72.6309 116.544 72.8271 116.808 73.0967C117.077 73.3662 117.282 73.7119 117.423 74.1338C117.569 74.5557 117.643 75.0654 117.643 75.6631V82H115.524V75.8477C115.524 75.3848 115.454 75.0215 115.313 74.7578C115.179 74.4941 114.982 74.3066 114.725 74.1953C114.473 74.0781 114.171 74.0195 113.819 74.0195C113.421 74.0195 113.081 74.0957 112.8 74.248C112.524 74.4004 112.299 74.6084 112.123 74.8721C111.947 75.1357 111.818 75.4404 111.736 75.7861C111.654 76.1318 111.613 76.501 111.613 76.8936ZM117.511 76.3311L116.518 76.5508C116.518 75.9766 116.597 75.4346 116.755 74.9248C116.919 74.4092 117.156 73.958 117.467 73.5713C117.783 73.1787 118.173 72.8711 118.636 72.6484C119.099 72.4258 119.629 72.3145 120.227 72.3145C120.713 72.3145 121.146 72.3818 121.527 72.5166C121.914 72.6455 122.242 72.8506 122.512 73.1318C122.781 73.4131 122.986 73.7793 123.127 74.2305C123.268 74.6758 123.338 75.2148 123.338 75.8477V82H121.211V75.8389C121.211 75.3584 121.141 74.9863 121 74.7227C120.865 74.459 120.672 74.2773 120.42 74.1777C120.168 74.0723 119.866 74.0195 119.515 74.0195C119.187 74.0195 118.896 74.0811 118.645 74.2041C118.398 74.3213 118.19 74.4883 118.021 74.7051C117.851 74.916 117.722 75.1592 117.634 75.4346C117.552 75.71 117.511 76.0088 117.511 76.3311ZM129.71 82.1758C129.007 82.1758 128.371 82.0615 127.803 81.833C127.24 81.5986 126.76 81.2734 126.361 80.8574C125.969 80.4414 125.667 79.9521 125.456 79.3896C125.245 78.8271 125.14 78.2207 125.14 77.5703V77.2188C125.14 76.4746 125.248 75.8008 125.465 75.1973C125.682 74.5938 125.983 74.0781 126.37 73.6504C126.757 73.2168 127.214 72.8857 127.741 72.6572C128.269 72.4287 128.84 72.3145 129.455 72.3145C130.135 72.3145 130.729 72.4287 131.239 72.6572C131.749 72.8857 132.171 73.208 132.505 73.624C132.845 74.0342 133.097 74.5234 133.261 75.0918C133.431 75.6602 133.516 76.2871 133.516 76.9727V77.8779H126.168V76.3574H131.424V76.1904C131.412 75.8096 131.336 75.4521 131.195 75.1182C131.061 74.7842 130.853 74.5146 130.571 74.3096C130.29 74.1045 129.915 74.002 129.446 74.002C129.095 74.002 128.781 74.0781 128.506 74.2305C128.236 74.377 128.011 74.5908 127.829 74.8721C127.647 75.1533 127.507 75.4932 127.407 75.8916C127.313 76.2842 127.267 76.7266 127.267 77.2188V77.5703C127.267 77.9863 127.322 78.373 127.434 78.7305C127.551 79.082 127.721 79.3896 127.943 79.6533C128.166 79.917 128.436 80.125 128.752 80.2773C129.068 80.4238 129.429 80.4971 129.833 80.4971C130.343 80.4971 130.797 80.3945 131.195 80.1895C131.594 79.9844 131.939 79.6943 132.232 79.3193L133.349 80.4004C133.144 80.6992 132.877 80.9863 132.549 81.2617C132.221 81.5312 131.819 81.751 131.345 81.9209C130.876 82.0908 130.331 82.1758 129.71 82.1758ZM137.269 74.5205V82H135.15V72.4902H137.146L137.269 74.5205ZM136.891 76.8936L136.205 76.8848C136.211 76.2109 136.305 75.5928 136.486 75.0303C136.674 74.4678 136.932 73.9844 137.26 73.5801C137.594 73.1758 137.992 72.8652 138.455 72.6484C138.918 72.4258 139.434 72.3145 140.002 72.3145C140.459 72.3145 140.872 72.3789 141.241 72.5078C141.616 72.6309 141.936 72.833 142.199 73.1143C142.469 73.3955 142.674 73.7617 142.814 74.2129C142.955 74.6582 143.025 75.2061 143.025 75.8564V82H140.898V75.8477C140.898 75.3906 140.831 75.0303 140.696 74.7666C140.567 74.4971 140.377 74.3066 140.125 74.1953C139.879 74.0781 139.571 74.0195 139.202 74.0195C138.839 74.0195 138.514 74.0957 138.227 74.248C137.939 74.4004 137.696 74.6084 137.497 74.8721C137.304 75.1357 137.154 75.4404 137.049 75.7861C136.943 76.1318 136.891 76.501 136.891 76.8936ZM149.547 72.4902V74.0371H144.186V72.4902H149.547ZM145.732 70.1611H147.851V79.3721C147.851 79.665 147.892 79.8906 147.974 80.0488C148.062 80.2012 148.182 80.3037 148.334 80.3564C148.486 80.4092 148.665 80.4355 148.87 80.4355C149.017 80.4355 149.157 80.4268 149.292 80.4092C149.427 80.3916 149.535 80.374 149.617 80.3564L149.626 81.9736C149.45 82.0264 149.245 82.0732 149.011 82.1143C148.782 82.1553 148.519 82.1758 148.22 82.1758C147.733 82.1758 147.303 82.0908 146.928 81.9209C146.553 81.7451 146.26 81.4609 146.049 81.0684C145.838 80.6758 145.732 80.1543 145.732 79.5039V70.1611ZM150.566 77.3506V77.1484C150.566 76.4629 150.666 75.8271 150.865 75.2412C151.064 74.6494 151.352 74.1367 151.727 73.7031C152.107 73.2637 152.57 72.9238 153.115 72.6836C153.666 72.4375 154.287 72.3145 154.979 72.3145C155.676 72.3145 156.297 72.4375 156.842 72.6836C157.393 72.9238 157.858 73.2637 158.239 73.7031C158.62 74.1367 158.91 74.6494 159.109 75.2412C159.309 75.8271 159.408 76.4629 159.408 77.1484V77.3506C159.408 78.0361 159.309 78.6719 159.109 79.2578C158.91 79.8438 158.62 80.3564 158.239 80.7959C157.858 81.2295 157.396 81.5693 156.851 81.8154C156.306 82.0557 155.688 82.1758 154.996 82.1758C154.299 82.1758 153.675 82.0557 153.124 81.8154C152.579 81.5693 152.116 81.2295 151.735 80.7959C151.354 80.3564 151.064 79.8438 150.865 79.2578C150.666 78.6719 150.566 78.0361 150.566 77.3506ZM152.685 77.1484V77.3506C152.685 77.7783 152.729 78.1826 152.816 78.5635C152.904 78.9443 153.042 79.2783 153.229 79.5654C153.417 79.8525 153.657 80.0781 153.95 80.2422C154.243 80.4062 154.592 80.4883 154.996 80.4883C155.389 80.4883 155.729 80.4062 156.016 80.2422C156.309 80.0781 156.549 79.8525 156.736 79.5654C156.924 79.2783 157.062 78.9443 157.149 78.5635C157.243 78.1826 157.29 77.7783 157.29 77.3506V77.1484C157.29 76.7266 157.243 76.3281 157.149 75.9531C157.062 75.5723 156.921 75.2354 156.728 74.9424C156.54 74.6494 156.3 74.4209 156.007 74.2568C155.72 74.0869 155.377 74.002 154.979 74.002C154.58 74.002 154.234 74.0869 153.941 74.2568C153.654 74.4209 153.417 74.6494 153.229 74.9424C153.042 75.2354 152.904 75.5723 152.816 75.9531C152.729 76.3281 152.685 76.7266 152.685 77.1484ZM163.311 74.3008V82H161.192V72.4902H163.214L163.311 74.3008ZM166.22 72.4287L166.202 74.3975C166.073 74.374 165.933 74.3564 165.78 74.3447C165.634 74.333 165.487 74.3271 165.341 74.3271C164.978 74.3271 164.658 74.3799 164.383 74.4854C164.107 74.585 163.876 74.7314 163.688 74.9248C163.507 75.1123 163.366 75.3408 163.267 75.6104C163.167 75.8799 163.108 76.1816 163.091 76.5156L162.607 76.5508C162.607 75.9531 162.666 75.3994 162.783 74.8896C162.9 74.3799 163.076 73.9316 163.311 73.5449C163.551 73.1582 163.85 72.8564 164.207 72.6396C164.57 72.4229 164.989 72.3145 165.464 72.3145C165.593 72.3145 165.73 72.3262 165.877 72.3496C166.029 72.373 166.144 72.3994 166.22 72.4287ZM166.387 80.9453C166.387 80.6172 166.498 80.3418 166.721 80.1191C166.943 79.8906 167.245 79.7764 167.626 79.7764C168.013 79.7764 168.314 79.8906 168.531 80.1191C168.754 80.3418 168.865 80.6172 168.865 80.9453C168.865 81.2734 168.754 81.5488 168.531 81.7715C168.314 81.9941 168.013 82.1055 167.626 82.1055C167.245 82.1055 166.943 81.9941 166.721 81.7715C166.498 81.5488 166.387 81.2734 166.387 80.9453ZM172.926 72.4902L174.736 75.6455L176.582 72.4902H178.911L176.028 77.1572L179.025 82H176.696L174.763 78.7129L172.829 82H170.491L173.479 77.1572L170.605 72.4902H172.926ZM182.488 74.3184V85.6562H180.37V72.4902H182.321L182.488 74.3184ZM188.685 77.1572V77.3418C188.685 78.0332 188.603 78.6748 188.438 79.2666C188.28 79.8525 188.043 80.3652 187.727 80.8047C187.416 81.2383 187.032 81.5752 186.575 81.8154C186.118 82.0557 185.591 82.1758 184.993 82.1758C184.401 82.1758 183.883 82.0674 183.438 81.8506C182.998 81.6279 182.626 81.3145 182.321 80.9102C182.017 80.5059 181.771 80.0312 181.583 79.4863C181.401 78.9355 181.272 78.332 181.196 77.6758V76.9639C181.272 76.2666 181.401 75.6338 181.583 75.0654C181.771 74.4971 182.017 74.0078 182.321 73.5977C182.626 73.1875 182.998 72.8711 183.438 72.6484C183.877 72.4258 184.39 72.3145 184.976 72.3145C185.573 72.3145 186.104 72.4316 186.566 72.666C187.029 72.8945 187.419 73.2227 187.735 73.6504C188.052 74.0723 188.289 74.582 188.447 75.1797C188.605 75.7715 188.685 76.4307 188.685 77.1572ZM186.566 77.3418V77.1572C186.566 76.7178 186.525 76.3105 186.443 75.9355C186.361 75.5547 186.232 75.2207 186.057 74.9336C185.881 74.6465 185.655 74.4238 185.38 74.2656C185.11 74.1016 184.785 74.0195 184.404 74.0195C184.029 74.0195 183.707 74.084 183.438 74.2129C183.168 74.3359 182.942 74.5088 182.761 74.7314C182.579 74.9541 182.438 75.2148 182.339 75.5137C182.239 75.8066 182.169 76.126 182.128 76.4717V78.1768C182.198 78.5986 182.318 78.9854 182.488 79.3369C182.658 79.6885 182.898 79.9697 183.209 80.1807C183.525 80.3857 183.93 80.4883 184.422 80.4883C184.803 80.4883 185.128 80.4062 185.397 80.2422C185.667 80.0781 185.887 79.8525 186.057 79.5654C186.232 79.2725 186.361 78.9355 186.443 78.5547C186.525 78.1738 186.566 77.7695 186.566 77.3418ZM193.141 80.9629L195.725 72.4902H197.992L194.178 83.4502C194.09 83.6846 193.976 83.9395 193.835 84.2148C193.694 84.4902 193.51 84.751 193.281 84.9971C193.059 85.249 192.78 85.4512 192.446 85.6035C192.112 85.7617 191.708 85.8408 191.233 85.8408C191.046 85.8408 190.864 85.8232 190.688 85.7881C190.519 85.7588 190.357 85.7266 190.205 85.6914L190.196 84.0742C190.255 84.0801 190.325 84.0859 190.407 84.0918C190.495 84.0977 190.565 84.1006 190.618 84.1006C190.97 84.1006 191.263 84.0566 191.497 83.9688C191.731 83.8867 191.922 83.752 192.068 83.5645C192.221 83.377 192.35 83.125 192.455 82.8086L193.141 80.9629ZM191.682 72.4902L193.94 79.6094L194.318 81.8418L192.851 82.2197L189.396 72.4902H191.682ZM204.769 69.2031L199.785 83.0986H198.124L203.116 69.2031H204.769ZM207.854 72.4902L209.664 75.6455L211.51 72.4902H213.839L210.956 77.1572L213.953 82H211.624L209.69 78.7129L207.757 82H205.419L208.407 77.1572L205.533 72.4902H207.854ZM218.049 80.9629L220.633 72.4902H222.9L219.086 83.4502C218.998 83.6846 218.884 83.9395 218.743 84.2148C218.603 84.4902 218.418 84.751 218.189 84.9971C217.967 85.249 217.688 85.4512 217.354 85.6035C217.021 85.7617 216.616 85.8408 216.142 85.8408C215.954 85.8408 215.772 85.8232 215.597 85.7881C215.427 85.7588 215.266 85.7266 215.113 85.6914L215.104 84.0742C215.163 84.0801 215.233 84.0859 215.315 84.0918C215.403 84.0977 215.474 84.1006 215.526 84.1006C215.878 84.1006 216.171 84.0566 216.405 83.9688C216.64 83.8867 216.83 83.752 216.977 83.5645C217.129 83.377 217.258 83.125 217.363 82.8086L218.049 80.9629ZM216.59 72.4902L218.849 79.6094L219.227 81.8418L217.759 82.2197L214.305 72.4902H216.59ZM226.24 74.3184V85.6562H224.122V72.4902H226.073L226.24 74.3184ZM232.437 77.1572V77.3418C232.437 78.0332 232.354 78.6748 232.19 79.2666C232.032 79.8525 231.795 80.3652 231.479 80.8047C231.168 81.2383 230.784 81.5752 230.327 81.8154C229.87 82.0557 229.343 82.1758 228.745 82.1758C228.153 82.1758 227.635 82.0674 227.189 81.8506C226.75 81.6279 226.378 81.3145 226.073 80.9102C225.769 80.5059 225.522 80.0312 225.335 79.4863C225.153 78.9355 225.024 78.332 224.948 77.6758V76.9639C225.024 76.2666 225.153 75.6338 225.335 75.0654C225.522 74.4971 225.769 74.0078 226.073 73.5977C226.378 73.1875 226.75 72.8711 227.189 72.6484C227.629 72.4258 228.142 72.3145 228.728 72.3145C229.325 72.3145 229.855 72.4316 230.318 72.666C230.781 72.8945 231.171 73.2227 231.487 73.6504C231.804 74.0723 232.041 74.582 232.199 75.1797C232.357 75.7715 232.437 76.4307 232.437 77.1572ZM230.318 77.3418V77.1572C230.318 76.7178 230.277 76.3105 230.195 75.9355C230.113 75.5547 229.984 75.2207 229.809 74.9336C229.633 74.6465 229.407 74.4238 229.132 74.2656C228.862 74.1016 228.537 74.0195 228.156 74.0195C227.781 74.0195 227.459 74.084 227.189 74.2129C226.92 74.3359 226.694 74.5088 226.513 74.7314C226.331 74.9541 226.19 75.2148 226.091 75.5137C225.991 75.8066 225.921 76.126 225.88 76.4717V78.1768C225.95 78.5986 226.07 78.9854 226.24 79.3369C226.41 79.6885 226.65 79.9697 226.961 80.1807C227.277 80.3857 227.682 80.4883 228.174 80.4883C228.555 80.4883 228.88 80.4062 229.149 80.2422C229.419 80.0781 229.639 79.8525 229.809 79.5654C229.984 79.2725 230.113 78.9355 230.195 78.5547C230.277 78.1738 230.318 77.7695 230.318 77.3418ZM239.573 79.4248C239.573 79.2139 239.521 79.0234 239.415 78.8535C239.31 78.6777 239.107 78.5195 238.809 78.3789C238.516 78.2383 238.082 78.1094 237.508 77.9922C237.004 77.8809 236.541 77.749 236.119 77.5967C235.703 77.4385 235.346 77.248 235.047 77.0254C234.748 76.8027 234.517 76.5391 234.353 76.2344C234.188 75.9297 234.106 75.5781 234.106 75.1797C234.106 74.793 234.191 74.4268 234.361 74.0811C234.531 73.7354 234.774 73.4307 235.091 73.167C235.407 72.9033 235.791 72.6953 236.242 72.543C236.699 72.3906 237.209 72.3145 237.771 72.3145C238.568 72.3145 239.251 72.4492 239.819 72.7188C240.394 72.9824 240.833 73.3428 241.138 73.7998C241.442 74.251 241.595 74.7607 241.595 75.3291H239.477C239.477 75.0771 239.412 74.8428 239.283 74.626C239.16 74.4033 238.973 74.2246 238.721 74.0898C238.469 73.9492 238.152 73.8789 237.771 73.8789C237.408 73.8789 237.106 73.9375 236.866 74.0547C236.632 74.166 236.456 74.3125 236.339 74.4941C236.228 74.6758 236.172 74.875 236.172 75.0918C236.172 75.25 236.201 75.3936 236.26 75.5225C236.324 75.6455 236.43 75.7598 236.576 75.8652C236.723 75.9648 236.922 76.0586 237.174 76.1465C237.432 76.2344 237.754 76.3193 238.141 76.4014C238.867 76.5537 239.491 76.75 240.013 76.9902C240.54 77.2246 240.944 77.5293 241.226 77.9043C241.507 78.2734 241.647 78.7422 241.647 79.3105C241.647 79.7324 241.557 80.1191 241.375 80.4707C241.199 80.8164 240.941 81.1182 240.602 81.376C240.262 81.6279 239.854 81.8242 239.38 81.9648C238.911 82.1055 238.384 82.1758 237.798 82.1758C236.937 82.1758 236.207 82.0234 235.609 81.7188C235.012 81.4082 234.558 81.0127 234.247 80.5322C233.942 80.0459 233.79 79.542 233.79 79.0205H235.838C235.861 79.4131 235.97 79.7266 236.163 79.9609C236.362 80.1895 236.608 80.3564 236.901 80.4619C237.2 80.5615 237.508 80.6113 237.824 80.6113C238.205 80.6113 238.524 80.5615 238.782 80.4619C239.04 80.3564 239.236 80.2158 239.371 80.04C239.506 79.8584 239.573 79.6533 239.573 79.4248Z" fill="#1D2730"/>
<path fill-rule="evenodd" clip-rule="evenodd" d="M49 127C43.4772 127 39 131.477 39 137V165C39 170.523 43.4772 175 49 175H250.857L263.638 197.137L276.419 175H291C296.523 175 301 170.523 301 165V137C301 131.477 296.523 127 291 127H49Z" fill="#07C9C9"/>
<path d="M54.4541 143.5V157H51.9229V143.5H54.4541ZM54.0938 151.911H53.3994C53.4053 151.249 53.4932 150.64 53.6631 150.083C53.833 149.521 54.0762 149.034 54.3926 148.624C54.709 148.208 55.0869 147.886 55.5264 147.657C55.9717 147.429 56.4639 147.314 57.0029 147.314C57.4717 147.314 57.8965 147.382 58.2773 147.517C58.6641 147.646 58.9951 147.856 59.2705 148.149C59.5518 148.437 59.7686 148.814 59.9209 149.283C60.0732 149.752 60.1494 150.32 60.1494 150.988V157H57.6006V150.971C57.6006 150.549 57.5391 150.218 57.416 149.978C57.2988 149.731 57.126 149.559 56.8975 149.459C56.6748 149.354 56.3994 149.301 56.0713 149.301C55.708 149.301 55.3975 149.368 55.1396 149.503C54.8877 149.638 54.6855 149.825 54.5332 150.065C54.3809 150.3 54.2695 150.575 54.1992 150.892C54.1289 151.208 54.0938 151.548 54.0938 151.911ZM66.7324 147.49V149.283H61.1953V147.49H66.7324ZM62.5664 145.144H65.0977V154.135C65.0977 154.41 65.1328 154.621 65.2031 154.768C65.2793 154.914 65.3906 155.017 65.5371 155.075C65.6836 155.128 65.8682 155.154 66.0908 155.154C66.249 155.154 66.3896 155.148 66.5127 155.137C66.6416 155.119 66.75 155.102 66.8379 155.084L66.8467 156.947C66.6299 157.018 66.3955 157.073 66.1436 157.114C65.8916 157.155 65.6133 157.176 65.3086 157.176C64.752 157.176 64.2656 157.085 63.8496 156.903C63.4395 156.716 63.123 156.417 62.9004 156.007C62.6777 155.597 62.5664 155.058 62.5664 154.39V145.144ZM72.832 147.49V149.283H67.2949V147.49H72.832ZM68.666 145.144H71.1973V154.135C71.1973 154.41 71.2324 154.621 71.3027 154.768C71.3789 154.914 71.4902 155.017 71.6367 155.075C71.7832 155.128 71.9678 155.154 72.1904 155.154C72.3486 155.154 72.4893 155.148 72.6123 155.137C72.7412 155.119 72.8496 155.102 72.9375 155.084L72.9463 156.947C72.7295 157.018 72.4951 157.073 72.2432 157.114C71.9912 157.155 71.7129 157.176 71.4082 157.176C70.8516 157.176 70.3652 157.085 69.9492 156.903C69.5391 156.716 69.2227 156.417 69 156.007C68.7773 155.597 68.666 155.058 68.666 154.39V145.144ZM76.8047 149.318V160.656H74.2734V147.49H76.6201L76.8047 149.318ZM82.8252 152.14V152.324C82.8252 153.016 82.7432 153.657 82.5791 154.249C82.4209 154.841 82.1865 155.356 81.876 155.796C81.5654 156.229 81.1787 156.569 80.7158 156.815C80.2588 157.056 79.7314 157.176 79.1338 157.176C78.5537 157.176 78.0498 157.059 77.6221 156.824C77.1943 156.59 76.834 156.262 76.541 155.84C76.2539 155.412 76.0225 154.917 75.8467 154.354C75.6709 153.792 75.5361 153.188 75.4424 152.544V152.061C75.5361 151.369 75.6709 150.736 75.8467 150.162C76.0225 149.582 76.2539 149.081 76.541 148.659C76.834 148.231 77.1914 147.9 77.6133 147.666C78.041 147.432 78.542 147.314 79.1162 147.314C79.7197 147.314 80.25 147.429 80.707 147.657C81.1699 147.886 81.5566 148.214 81.8672 148.642C82.1836 149.069 82.4209 149.579 82.5791 150.171C82.7432 150.763 82.8252 151.419 82.8252 152.14ZM80.2852 152.324V152.14C80.2852 151.735 80.25 151.363 80.1797 151.023C80.1152 150.678 80.0098 150.376 79.8633 150.118C79.7227 149.86 79.5352 149.661 79.3008 149.521C79.0723 149.374 78.7939 149.301 78.4658 149.301C78.1201 149.301 77.8242 149.356 77.5781 149.468C77.3379 149.579 77.1416 149.74 76.9893 149.951C76.8369 150.162 76.7227 150.414 76.6465 150.707C76.5703 151 76.5234 151.331 76.5059 151.7V152.922C76.5352 153.355 76.6172 153.745 76.752 154.091C76.8867 154.431 77.0947 154.7 77.376 154.899C77.6572 155.099 78.0264 155.198 78.4834 155.198C78.8174 155.198 79.0986 155.125 79.3271 154.979C79.5557 154.826 79.7402 154.618 79.8809 154.354C80.0273 154.091 80.1299 153.786 80.1885 153.44C80.2529 153.095 80.2852 152.723 80.2852 152.324ZM89.54 154.372C89.54 154.19 89.4873 154.026 89.3818 153.88C89.2764 153.733 89.0801 153.599 88.793 153.476C88.5117 153.347 88.1045 153.229 87.5713 153.124C87.0908 153.019 86.6426 152.887 86.2266 152.729C85.8164 152.564 85.459 152.368 85.1543 152.14C84.8555 151.911 84.6211 151.642 84.4512 151.331C84.2812 151.015 84.1963 150.654 84.1963 150.25C84.1963 149.852 84.2812 149.477 84.4512 149.125C84.627 148.773 84.876 148.463 85.1982 148.193C85.5264 147.918 85.9248 147.704 86.3936 147.552C86.8682 147.394 87.4014 147.314 87.9932 147.314C88.8193 147.314 89.5283 147.446 90.1201 147.71C90.7178 147.974 91.1748 148.337 91.4912 148.8C91.8135 149.257 91.9746 149.778 91.9746 150.364H89.4434C89.4434 150.118 89.3906 149.898 89.2852 149.705C89.1855 149.506 89.0273 149.351 88.8105 149.239C88.5996 149.122 88.3242 149.063 87.9844 149.063C87.7031 149.063 87.46 149.113 87.2549 149.213C87.0498 149.307 86.8916 149.436 86.7803 149.6C86.6748 149.758 86.6221 149.934 86.6221 150.127C86.6221 150.273 86.6514 150.405 86.71 150.522C86.7744 150.634 86.877 150.736 87.0176 150.83C87.1582 150.924 87.3398 151.012 87.5625 151.094C87.791 151.17 88.0723 151.24 88.4062 151.305C89.0918 151.445 89.7041 151.63 90.2432 151.858C90.7822 152.081 91.21 152.386 91.5264 152.772C91.8428 153.153 92.001 153.654 92.001 154.275C92.001 154.697 91.9072 155.084 91.7197 155.436C91.5322 155.787 91.2627 156.095 90.9111 156.358C90.5596 156.616 90.1377 156.818 89.6455 156.965C89.1592 157.105 88.6113 157.176 88.002 157.176C87.1172 157.176 86.3672 157.018 85.752 156.701C85.1426 156.385 84.6797 155.983 84.3633 155.497C84.0527 155.005 83.8975 154.501 83.8975 153.985H86.2969C86.3086 154.331 86.3965 154.609 86.5605 154.82C86.7305 155.031 86.9443 155.184 87.2021 155.277C87.4658 155.371 87.75 155.418 88.0547 155.418C88.3828 155.418 88.6553 155.374 88.8721 155.286C89.0889 155.192 89.2529 155.069 89.3643 154.917C89.4814 154.759 89.54 154.577 89.54 154.372ZM93.7412 155.778C93.7412 155.403 93.8701 155.09 94.1279 154.838C94.3916 154.586 94.7402 154.46 95.1738 154.46C95.6074 154.46 95.9531 154.586 96.2109 154.838C96.4746 155.09 96.6064 155.403 96.6064 155.778C96.6064 156.153 96.4746 156.467 96.2109 156.719C95.9531 156.971 95.6074 157.097 95.1738 157.097C94.7402 157.097 94.3916 156.971 94.1279 156.719C93.8701 156.467 93.7412 156.153 93.7412 155.778ZM93.7412 148.527C93.7412 148.152 93.8701 147.839 94.1279 147.587C94.3916 147.335 94.7402 147.209 95.1738 147.209C95.6074 147.209 95.9531 147.335 96.2109 147.587C96.4746 147.839 96.6064 148.152 96.6064 148.527C96.6064 148.902 96.4746 149.216 96.2109 149.468C95.9531 149.72 95.6074 149.846 95.1738 149.846C94.7402 149.846 94.3916 149.72 94.1279 149.468C93.8701 149.216 93.7412 148.902 93.7412 148.527ZM104.191 144.203L99.498 158.099H97.6172L102.311 144.203H104.191ZM108.762 144.203L104.068 158.099H102.188L106.881 144.203H108.762ZM112.506 149.459V157H109.966V147.49H112.348L112.506 149.459ZM112.154 151.911H111.451C111.451 151.249 111.53 150.64 111.688 150.083C111.853 149.521 112.09 149.034 112.4 148.624C112.717 148.208 113.106 147.886 113.569 147.657C114.032 147.429 114.568 147.314 115.178 147.314C115.6 147.314 115.986 147.379 116.338 147.508C116.689 147.631 116.991 147.827 117.243 148.097C117.501 148.36 117.7 148.706 117.841 149.134C117.981 149.556 118.052 150.062 118.052 150.654V157H115.521V150.936C115.521 150.502 115.462 150.168 115.345 149.934C115.228 149.699 115.061 149.535 114.844 149.441C114.633 149.348 114.378 149.301 114.079 149.301C113.751 149.301 113.464 149.368 113.218 149.503C112.978 149.638 112.778 149.825 112.62 150.065C112.462 150.3 112.345 150.575 112.269 150.892C112.192 151.208 112.154 151.548 112.154 151.911ZM117.814 151.621L116.909 151.735C116.909 151.114 116.985 150.537 117.138 150.004C117.296 149.471 117.527 149.002 117.832 148.598C118.143 148.193 118.526 147.88 118.983 147.657C119.44 147.429 119.968 147.314 120.565 147.314C121.022 147.314 121.438 147.382 121.813 147.517C122.188 147.646 122.508 147.854 122.771 148.141C123.041 148.422 123.246 148.791 123.387 149.248C123.533 149.705 123.606 150.265 123.606 150.927V157H121.066V150.927C121.066 150.487 121.008 150.153 120.891 149.925C120.779 149.69 120.615 149.529 120.398 149.441C120.188 149.348 119.936 149.301 119.643 149.301C119.338 149.301 119.071 149.362 118.843 149.485C118.614 149.603 118.424 149.767 118.271 149.978C118.119 150.188 118.005 150.435 117.929 150.716C117.853 150.991 117.814 151.293 117.814 151.621ZM129.943 157.176C129.205 157.176 128.543 157.059 127.957 156.824C127.371 156.584 126.873 156.253 126.463 155.831C126.059 155.409 125.748 154.92 125.531 154.363C125.314 153.801 125.206 153.203 125.206 152.57V152.219C125.206 151.498 125.309 150.839 125.514 150.241C125.719 149.644 126.012 149.125 126.393 148.686C126.779 148.246 127.248 147.909 127.799 147.675C128.35 147.435 128.971 147.314 129.662 147.314C130.336 147.314 130.934 147.426 131.455 147.648C131.977 147.871 132.413 148.188 132.765 148.598C133.122 149.008 133.392 149.5 133.573 150.074C133.755 150.643 133.846 151.275 133.846 151.973V153.027H126.287V151.34H131.358V151.146C131.358 150.795 131.294 150.481 131.165 150.206C131.042 149.925 130.854 149.702 130.603 149.538C130.351 149.374 130.028 149.292 129.636 149.292C129.302 149.292 129.015 149.365 128.774 149.512C128.534 149.658 128.338 149.863 128.186 150.127C128.039 150.391 127.928 150.701 127.852 151.059C127.781 151.41 127.746 151.797 127.746 152.219V152.57C127.746 152.951 127.799 153.303 127.904 153.625C128.016 153.947 128.171 154.226 128.37 154.46C128.575 154.694 128.821 154.876 129.108 155.005C129.401 155.134 129.732 155.198 130.102 155.198C130.559 155.198 130.983 155.11 131.376 154.935C131.774 154.753 132.117 154.48 132.404 154.117L133.635 155.453C133.436 155.74 133.163 156.016 132.817 156.279C132.478 156.543 132.067 156.76 131.587 156.93C131.106 157.094 130.559 157.176 129.943 157.176ZM137.766 149.521V157H135.234V147.49H137.607L137.766 149.521ZM137.396 151.911H136.711C136.711 151.208 136.802 150.575 136.983 150.013C137.165 149.444 137.42 148.961 137.748 148.562C138.076 148.158 138.466 147.851 138.917 147.64C139.374 147.423 139.884 147.314 140.446 147.314C140.892 147.314 141.299 147.379 141.668 147.508C142.037 147.637 142.354 147.842 142.617 148.123C142.887 148.404 143.092 148.776 143.232 149.239C143.379 149.702 143.452 150.268 143.452 150.936V157H140.903V150.927C140.903 150.505 140.845 150.177 140.728 149.942C140.61 149.708 140.438 149.544 140.209 149.45C139.986 149.351 139.711 149.301 139.383 149.301C139.043 149.301 138.747 149.368 138.495 149.503C138.249 149.638 138.044 149.825 137.88 150.065C137.722 150.3 137.602 150.575 137.52 150.892C137.438 151.208 137.396 151.548 137.396 151.911ZM150.035 147.49V149.283H144.498V147.49H150.035ZM145.869 145.144H148.4V154.135C148.4 154.41 148.436 154.621 148.506 154.768C148.582 154.914 148.693 155.017 148.84 155.075C148.986 155.128 149.171 155.154 149.394 155.154C149.552 155.154 149.692 155.148 149.815 155.137C149.944 155.119 150.053 155.102 150.141 155.084L150.149 156.947C149.933 157.018 149.698 157.073 149.446 157.114C149.194 157.155 148.916 157.176 148.611 157.176C148.055 157.176 147.568 157.085 147.152 156.903C146.742 156.716 146.426 156.417 146.203 156.007C145.98 155.597 145.869 155.058 145.869 154.39V145.144ZM150.844 152.342V152.157C150.844 151.46 150.943 150.818 151.143 150.232C151.342 149.641 151.632 149.128 152.013 148.694C152.394 148.261 152.862 147.924 153.419 147.684C153.976 147.438 154.614 147.314 155.335 147.314C156.056 147.314 156.697 147.438 157.26 147.684C157.822 147.924 158.294 148.261 158.675 148.694C159.062 149.128 159.354 149.641 159.554 150.232C159.753 150.818 159.853 151.46 159.853 152.157V152.342C159.853 153.033 159.753 153.675 159.554 154.267C159.354 154.853 159.062 155.365 158.675 155.805C158.294 156.238 157.825 156.575 157.269 156.815C156.712 157.056 156.073 157.176 155.353 157.176C154.632 157.176 153.99 157.056 153.428 156.815C152.871 156.575 152.399 156.238 152.013 155.805C151.632 155.365 151.342 154.853 151.143 154.267C150.943 153.675 150.844 153.033 150.844 152.342ZM153.375 152.157V152.342C153.375 152.74 153.41 153.112 153.48 153.458C153.551 153.804 153.662 154.108 153.814 154.372C153.973 154.63 154.178 154.832 154.43 154.979C154.682 155.125 154.989 155.198 155.353 155.198C155.704 155.198 156.006 155.125 156.258 154.979C156.51 154.832 156.712 154.63 156.864 154.372C157.017 154.108 157.128 153.804 157.198 153.458C157.274 153.112 157.312 152.74 157.312 152.342V152.157C157.312 151.771 157.274 151.407 157.198 151.067C157.128 150.722 157.014 150.417 156.855 150.153C156.703 149.884 156.501 149.673 156.249 149.521C155.997 149.368 155.692 149.292 155.335 149.292C154.978 149.292 154.673 149.368 154.421 149.521C154.175 149.673 153.973 149.884 153.814 150.153C153.662 150.417 153.551 150.722 153.48 151.067C153.41 151.407 153.375 151.771 153.375 152.157ZM163.939 149.564V157H161.408V147.49H163.79L163.939 149.564ZM166.805 147.429L166.761 149.775C166.638 149.758 166.488 149.743 166.312 149.731C166.143 149.714 165.987 149.705 165.847 149.705C165.489 149.705 165.179 149.752 164.915 149.846C164.657 149.934 164.44 150.065 164.265 150.241C164.095 150.417 163.966 150.631 163.878 150.883C163.796 151.135 163.749 151.422 163.737 151.744L163.228 151.586C163.228 150.971 163.289 150.405 163.412 149.89C163.535 149.368 163.714 148.914 163.948 148.527C164.188 148.141 164.481 147.842 164.827 147.631C165.173 147.42 165.568 147.314 166.014 147.314C166.154 147.314 166.298 147.326 166.444 147.35C166.591 147.367 166.711 147.394 166.805 147.429ZM166.734 155.778C166.734 155.403 166.863 155.09 167.121 154.838C167.385 154.586 167.733 154.46 168.167 154.46C168.601 154.46 168.946 154.586 169.204 154.838C169.468 155.09 169.6 155.403 169.6 155.778C169.6 156.153 169.468 156.467 169.204 156.719C168.946 156.971 168.601 157.097 168.167 157.097C167.733 157.097 167.385 156.971 167.121 156.719C166.863 156.467 166.734 156.153 166.734 155.778ZM175.761 155.198C176.071 155.198 176.347 155.14 176.587 155.022C176.827 154.899 177.015 154.729 177.149 154.513C177.29 154.29 177.363 154.029 177.369 153.73H179.751C179.745 154.398 179.566 154.993 179.215 155.515C178.863 156.03 178.392 156.438 177.8 156.736C177.208 157.029 176.546 157.176 175.813 157.176C175.075 157.176 174.431 157.053 173.88 156.807C173.335 156.561 172.881 156.221 172.518 155.787C172.154 155.348 171.882 154.838 171.7 154.258C171.519 153.672 171.428 153.045 171.428 152.377V152.122C171.428 151.448 171.519 150.821 171.7 150.241C171.882 149.655 172.154 149.146 172.518 148.712C172.881 148.272 173.335 147.93 173.88 147.684C174.425 147.438 175.063 147.314 175.796 147.314C176.575 147.314 177.258 147.464 177.844 147.763C178.436 148.062 178.898 148.489 179.232 149.046C179.572 149.597 179.745 150.25 179.751 151.006H177.369C177.363 150.689 177.296 150.402 177.167 150.145C177.044 149.887 176.862 149.682 176.622 149.529C176.388 149.371 176.098 149.292 175.752 149.292C175.383 149.292 175.081 149.371 174.847 149.529C174.612 149.682 174.431 149.893 174.302 150.162C174.173 150.426 174.082 150.728 174.029 151.067C173.982 151.401 173.959 151.753 173.959 152.122V152.377C173.959 152.746 173.982 153.101 174.029 153.44C174.076 153.78 174.164 154.082 174.293 154.346C174.428 154.609 174.612 154.817 174.847 154.97C175.081 155.122 175.386 155.198 175.761 155.198ZM180.814 152.342V152.157C180.814 151.46 180.914 150.818 181.113 150.232C181.312 149.641 181.603 149.128 181.983 148.694C182.364 148.261 182.833 147.924 183.39 147.684C183.946 147.438 184.585 147.314 185.306 147.314C186.026 147.314 186.668 147.438 187.23 147.684C187.793 147.924 188.265 148.261 188.646 148.694C189.032 149.128 189.325 149.641 189.524 150.232C189.724 150.818 189.823 151.46 189.823 152.157V152.342C189.823 153.033 189.724 153.675 189.524 154.267C189.325 154.853 189.032 155.365 188.646 155.805C188.265 156.238 187.796 156.575 187.239 156.815C186.683 157.056 186.044 157.176 185.323 157.176C184.603 157.176 183.961 157.056 183.398 156.815C182.842 156.575 182.37 156.238 181.983 155.805C181.603 155.365 181.312 154.853 181.113 154.267C180.914 153.675 180.814 153.033 180.814 152.342ZM183.346 152.157V152.342C183.346 152.74 183.381 153.112 183.451 153.458C183.521 153.804 183.633 154.108 183.785 154.372C183.943 154.63 184.148 154.832 184.4 154.979C184.652 155.125 184.96 155.198 185.323 155.198C185.675 155.198 185.977 155.125 186.229 154.979C186.48 154.832 186.683 154.63 186.835 154.372C186.987 154.108 187.099 153.804 187.169 153.458C187.245 153.112 187.283 152.74 187.283 152.342V152.157C187.283 151.771 187.245 151.407 187.169 151.067C187.099 150.722 186.984 150.417 186.826 150.153C186.674 149.884 186.472 149.673 186.22 149.521C185.968 149.368 185.663 149.292 185.306 149.292C184.948 149.292 184.644 149.368 184.392 149.521C184.146 149.673 183.943 149.884 183.785 150.153C183.633 150.417 183.521 150.722 183.451 151.067C183.381 151.407 183.346 151.771 183.346 152.157ZM193.91 149.459V157H191.37V147.49H193.752L193.91 149.459ZM193.559 151.911H192.855C192.855 151.249 192.935 150.64 193.093 150.083C193.257 149.521 193.494 149.034 193.805 148.624C194.121 148.208 194.511 147.886 194.974 147.657C195.437 147.429 195.973 147.314 196.582 147.314C197.004 147.314 197.391 147.379 197.742 147.508C198.094 147.631 198.396 147.827 198.647 148.097C198.905 148.36 199.104 148.706 199.245 149.134C199.386 149.556 199.456 150.062 199.456 150.654V157H196.925V150.936C196.925 150.502 196.866 150.168 196.749 149.934C196.632 149.699 196.465 149.535 196.248 149.441C196.037 149.348 195.782 149.301 195.483 149.301C195.155 149.301 194.868 149.368 194.622 149.503C194.382 149.638 194.183 149.825 194.024 150.065C193.866 150.3 193.749 150.575 193.673 150.892C193.597 151.208 193.559 151.548 193.559 151.911ZM199.219 151.621L198.313 151.735C198.313 151.114 198.39 150.537 198.542 150.004C198.7 149.471 198.932 149.002 199.236 148.598C199.547 148.193 199.931 147.88 200.388 147.657C200.845 147.429 201.372 147.314 201.97 147.314C202.427 147.314 202.843 147.382 203.218 147.517C203.593 147.646 203.912 147.854 204.176 148.141C204.445 148.422 204.65 148.791 204.791 149.248C204.938 149.705 205.011 150.265 205.011 150.927V157H202.471V150.927C202.471 150.487 202.412 150.153 202.295 149.925C202.184 149.69 202.02 149.529 201.803 149.441C201.592 149.348 201.34 149.301 201.047 149.301C200.742 149.301 200.476 149.362 200.247 149.485C200.019 149.603 199.828 149.767 199.676 149.978C199.523 150.188 199.409 150.435 199.333 150.716C199.257 150.991 199.219 151.293 199.219 151.621ZM212.438 144.203L207.744 158.099H205.863L210.557 144.203H212.438ZM218.792 154.372C218.792 154.19 218.739 154.026 218.634 153.88C218.528 153.733 218.332 153.599 218.045 153.476C217.764 153.347 217.356 153.229 216.823 153.124C216.343 153.019 215.895 152.887 215.479 152.729C215.068 152.564 214.711 152.368 214.406 152.14C214.107 151.911 213.873 151.642 213.703 151.331C213.533 151.015 213.448 150.654 213.448 150.25C213.448 149.852 213.533 149.477 213.703 149.125C213.879 148.773 214.128 148.463 214.45 148.193C214.778 147.918 215.177 147.704 215.646 147.552C216.12 147.394 216.653 147.314 217.245 147.314C218.071 147.314 218.78 147.446 219.372 147.71C219.97 147.974 220.427 148.337 220.743 148.8C221.065 149.257 221.227 149.778 221.227 150.364H218.695C218.695 150.118 218.643 149.898 218.537 149.705C218.438 149.506 218.279 149.351 218.062 149.239C217.852 149.122 217.576 149.063 217.236 149.063C216.955 149.063 216.712 149.113 216.507 149.213C216.302 149.307 216.144 149.436 216.032 149.6C215.927 149.758 215.874 149.934 215.874 150.127C215.874 150.273 215.903 150.405 215.962 150.522C216.026 150.634 216.129 150.736 216.27 150.83C216.41 150.924 216.592 151.012 216.814 151.094C217.043 151.17 217.324 151.24 217.658 151.305C218.344 151.445 218.956 151.63 219.495 151.858C220.034 152.081 220.462 152.386 220.778 152.772C221.095 153.153 221.253 153.654 221.253 154.275C221.253 154.697 221.159 155.084 220.972 155.436C220.784 155.787 220.515 156.095 220.163 156.358C219.812 156.616 219.39 156.818 218.897 156.965C218.411 157.105 217.863 157.176 217.254 157.176C216.369 157.176 215.619 157.018 215.004 156.701C214.395 156.385 213.932 155.983 213.615 155.497C213.305 155.005 213.149 154.501 213.149 153.985H215.549C215.561 154.331 215.648 154.609 215.812 154.82C215.982 155.031 216.196 155.184 216.454 155.277C216.718 155.371 217.002 155.418 217.307 155.418C217.635 155.418 217.907 155.374 218.124 155.286C218.341 155.192 218.505 155.069 218.616 154.917C218.733 154.759 218.792 154.577 218.792 154.372ZM227.273 157.176C226.535 157.176 225.873 157.059 225.287 156.824C224.701 156.584 224.203 156.253 223.793 155.831C223.389 155.409 223.078 154.92 222.861 154.363C222.645 153.801 222.536 153.203 222.536 152.57V152.219C222.536 151.498 222.639 150.839 222.844 150.241C223.049 149.644 223.342 149.125 223.723 148.686C224.109 148.246 224.578 147.909 225.129 147.675C225.68 147.435 226.301 147.314 226.992 147.314C227.666 147.314 228.264 147.426 228.785 147.648C229.307 147.871 229.743 148.188 230.095 148.598C230.452 149.008 230.722 149.5 230.903 150.074C231.085 150.643 231.176 151.275 231.176 151.973V153.027H223.617V151.34H228.688V151.146C228.688 150.795 228.624 150.481 228.495 150.206C228.372 149.925 228.185 149.702 227.933 149.538C227.681 149.374 227.358 149.292 226.966 149.292C226.632 149.292 226.345 149.365 226.104 149.512C225.864 149.658 225.668 149.863 225.516 150.127C225.369 150.391 225.258 150.701 225.182 151.059C225.111 151.41 225.076 151.797 225.076 152.219V152.57C225.076 152.951 225.129 153.303 225.234 153.625C225.346 153.947 225.501 154.226 225.7 154.46C225.905 154.694 226.151 154.876 226.438 155.005C226.731 155.134 227.062 155.198 227.432 155.198C227.889 155.198 228.313 155.11 228.706 154.935C229.104 154.753 229.447 154.48 229.734 154.117L230.965 155.453C230.766 155.74 230.493 156.016 230.147 156.279C229.808 156.543 229.397 156.76 228.917 156.93C228.437 157.094 227.889 157.176 227.273 157.176ZM238.242 154.724V147.49H240.773V157H238.392L238.242 154.724ZM238.523 152.772L239.271 152.755C239.271 153.388 239.197 153.977 239.051 154.521C238.904 155.061 238.685 155.529 238.392 155.928C238.099 156.32 237.729 156.628 237.284 156.851C236.839 157.067 236.314 157.176 235.711 157.176C235.248 157.176 234.82 157.111 234.428 156.982C234.041 156.848 233.707 156.64 233.426 156.358C233.15 156.071 232.934 155.705 232.775 155.26C232.623 154.809 232.547 154.267 232.547 153.634V147.49H235.078V153.651C235.078 153.933 235.11 154.17 235.175 154.363C235.245 154.557 235.342 154.715 235.465 154.838C235.588 154.961 235.731 155.049 235.896 155.102C236.065 155.154 236.253 155.181 236.458 155.181C236.979 155.181 237.39 155.075 237.688 154.864C237.993 154.653 238.207 154.366 238.33 154.003C238.459 153.634 238.523 153.224 238.523 152.772ZM245.379 143.5V157H242.839V143.5H245.379ZM250.143 147.49V157H247.603V147.49H250.143ZM247.444 145.012C247.444 144.643 247.573 144.338 247.831 144.098C248.089 143.857 248.435 143.737 248.868 143.737C249.296 143.737 249.639 143.857 249.896 144.098C250.16 144.338 250.292 144.643 250.292 145.012C250.292 145.381 250.16 145.686 249.896 145.926C249.639 146.166 249.296 146.286 248.868 146.286C248.435 146.286 248.089 146.166 247.831 145.926C247.573 145.686 247.444 145.381 247.444 145.012ZM254.713 149.521V157H252.182V147.49H254.555L254.713 149.521ZM254.344 151.911H253.658C253.658 151.208 253.749 150.575 253.931 150.013C254.112 149.444 254.367 148.961 254.695 148.562C255.023 148.158 255.413 147.851 255.864 147.64C256.321 147.423 256.831 147.314 257.394 147.314C257.839 147.314 258.246 147.379 258.615 147.508C258.984 147.637 259.301 147.842 259.564 148.123C259.834 148.404 260.039 148.776 260.18 149.239C260.326 149.702 260.399 150.268 260.399 150.936V157H257.851V150.927C257.851 150.505 257.792 150.177 257.675 149.942C257.558 149.708 257.385 149.544 257.156 149.45C256.934 149.351 256.658 149.301 256.33 149.301C255.99 149.301 255.694 149.368 255.442 149.503C255.196 149.638 254.991 149.825 254.827 150.065C254.669 150.3 254.549 150.575 254.467 150.892C254.385 151.208 254.344 151.548 254.344 151.911ZM264.855 143.491V157H262.324V143.491H264.855ZM270.85 147.49L266.719 152.201L264.504 154.442L263.581 152.614L265.339 150.382L267.809 147.49H270.85ZM268.222 157L265.409 152.605L267.158 151.076L271.14 157H268.222Z" fill="#1D2730"/>
<circle cx="25" cy="23" r="23" fill="white"/>
<path d="M33.001 15.3335L16.334 32.0005" stroke="#FF2323" stroke-width="2.77783" stroke-linecap="round" stroke-linejoin="round"/>
<path d="M16.334 15.3335L33.001 32.0005" stroke="#FF2323" stroke-width="2.77783" stroke-linecap="round" stroke-linejoin="round"/>
<circle cx="285" cy="127" r="23" fill="white"/>
<path d="M295.5 120.618L280.375 136.417L273.5 129.235" stroke="#07C983" stroke-width="2.75" stroke-linecap="round" stroke-linejoin="round"/>
<circle cx="47.5" cy="45.5" r="5.5" fill="white"/>
<circle cx="56.5" cy="54.5" r="3.5" fill="white"/>
</svg>
