<svg width="313" height="200" viewBox="0 0 313 200" fill="none" xmlns="http://www.w3.org/2000/svg">
<rect y="193" width="313" height="1" fill="#E2E2E2"/>
<rect y="179" width="313" height="1" fill="#E2E2E2"/>
<rect y="165" width="313" height="1" fill="#E2E2E2"/>
<rect y="151" width="313" height="1" fill="#E2E2E2"/>
<rect y="137" width="313" height="1" fill="#E2E2E2"/>
<rect x="11" y="167" width="20" height="27" fill="#44AEFB"/>
<rect x="215" y="167" width="20" height="27" fill="#44AEFB"/>
<rect x="45" y="140" width="20" height="54" fill="#44AEFB"/>
<rect x="181" y="140" width="20" height="54" fill="#44AEFB"/>
<rect x="113" y="140" width="20" height="54" fill="#44AEFB"/>
<rect x="283" y="140" width="20" height="54" fill="#44AEFB"/>
<rect x="79" y="115" width="20" height="79" fill="#44AEFB"/>
<rect x="249" y="115" width="20" height="79" fill="#44AEFB"/>
<rect x="147" y="115" width="20" height="79" fill="#44AEFB"/>
<rect y="89" width="313" height="1" fill="#E2E2E2"/>
<rect y="75" width="313" height="1" fill="#E2E2E2"/>
<rect y="61" width="313" height="1" fill="#E2E2E2"/>
<rect y="47" width="313" height="1" fill="#E2E2E2"/>
<rect y="33" width="313" height="1" fill="#E2E2E2"/>
<rect x="11" y="63" width="20" height="27" fill="#148CE2"/>
<rect x="215" y="63" width="20" height="27" fill="#148CE2"/>
<rect x="45" y="36" width="20" height="54" fill="#148CE2"/>
<rect x="181" y="36" width="20" height="54" fill="#148CE2"/>
<rect x="113" y="36" width="20" height="54" fill="#148CE2"/>
<rect x="283" y="36" width="20" height="54" fill="#148CE2"/>
<rect x="79" y="11" width="20" height="79" fill="#148CE2"/>
<rect x="249" y="11" width="20" height="79" fill="#148CE2"/>
<rect x="147" y="11" width="20" height="79" fill="#148CE2"/>
</svg>
