<svg width="29" height="29" viewBox="0 0 29 29" fill="none" xmlns="http://www.w3.org/2000/svg">
<g clip-path="url(#clip0_1_143)">
<path d="M28.3759 8.30051C28.3759 5.79008 26.5294 3.77059 24.2477 3.77059C21.1571 3.6261 18.0051 3.57031 14.7839 3.57031H13.7798C10.5664 3.57031 7.40887 3.6261 4.31827 3.77115C2.04215 3.77115 0.195594 5.8018 0.195594 8.31222C0.0561264 10.2977 -0.00300798 12.2837 0.000339246 14.2697C-0.00523947 16.2558 0.057986 18.2436 0.190016 20.2334C0.190016 22.7438 2.03657 24.78 4.31269 24.78C7.5595 24.9307 10.89 24.9976 14.2763 24.992C17.6681 25.0032 20.9893 24.9325 24.2399 24.78C26.5216 24.78 28.3681 22.7438 28.3681 20.2334C28.502 18.2418 28.5634 16.2558 28.5578 14.2642C28.5704 12.2781 28.5098 10.2902 28.3759 8.30051ZM11.5483 19.7425V8.78028L19.6374 14.2586L11.5483 19.7425Z" fill="#1D2730"/>
</g>
<defs>
<clipPath id="clip0_1_143">
<rect width="28.563" height="28.563" fill="white"/>
</clipPath>
</defs>
</svg>
