<svg width="29" height="29" viewBox="0 0 29 29" fill="none" xmlns="http://www.w3.org/2000/svg">
<path d="M19.4881 3.86745C20.8679 3.87157 22.1899 4.4215 23.1656 5.39714C24.1412 6.37279 24.6911 7.69486 24.6953 9.07462V19.4879C24.6911 20.8676 24.1412 22.1897 23.1656 23.1653C22.1899 24.141 20.8679 24.6909 19.4881 24.695H9.07486C7.6951 24.6909 6.37303 24.141 5.39739 23.1653C4.42175 22.1897 3.87181 20.8676 3.86769 19.4879V9.07462C3.87181 7.69486 4.42175 6.37279 5.39739 5.39714C6.37303 4.4215 7.6951 3.87157 9.07486 3.86745H19.4881ZM19.4881 1.78491H9.07486C5.06544 1.78491 1.78516 5.0652 1.78516 9.07462V19.4879C1.78516 23.4973 5.06544 26.7776 9.07486 26.7776H19.4881C23.4975 26.7776 26.7778 23.4973 26.7778 19.4879V9.07462C26.7778 5.0652 23.4975 1.78491 19.4881 1.78491Z" fill="#1D2730"/>
<path d="M21.0501 9.0744C20.7412 9.0744 20.4392 8.98279 20.1823 8.81115C19.9254 8.63951 19.7252 8.39555 19.607 8.11013C19.4888 7.8247 19.4578 7.51063 19.5181 7.20762C19.5784 6.90461 19.7272 6.62628 19.9456 6.40783C20.1641 6.18937 20.4424 6.0406 20.7454 5.98033C21.0484 5.92006 21.3625 5.95099 21.6479 6.06922C21.9333 6.18745 22.1773 6.38766 22.3489 6.64454C22.5206 6.90141 22.6122 7.20342 22.6122 7.51236C22.6126 7.71761 22.5725 7.92093 22.4942 8.11065C22.4158 8.30036 22.3008 8.47274 22.1557 8.61787C22.0105 8.76301 21.8381 8.87805 21.6484 8.95639C21.4587 9.03474 21.2554 9.07484 21.0501 9.0744ZM14.2815 10.1154C15.1054 10.1154 15.9108 10.3597 16.5958 10.8174C17.2808 11.2751 17.8147 11.9257 18.13 12.6869C18.4453 13.4481 18.5278 14.2856 18.3671 15.0937C18.2063 15.9017 17.8096 16.644 17.227 17.2266C16.6445 17.8091 15.9022 18.2059 15.0942 18.3666C14.2861 18.5273 13.4485 18.4448 12.6874 18.1296C11.9262 17.8143 11.2756 17.2803 10.8179 16.5953C10.3602 15.9103 10.1159 15.1049 10.1159 14.281C10.117 13.1766 10.5563 12.1177 11.3373 11.3368C12.1182 10.5558 13.1771 10.1166 14.2815 10.1154ZM14.2815 8.03285C13.0457 8.03285 11.8377 8.3993 10.8102 9.08586C9.78269 9.77241 8.98185 10.7482 8.50894 11.8899C8.03603 13.0316 7.9123 14.2879 8.15338 15.5C8.39447 16.712 8.98955 17.8253 9.86337 18.6991C10.7372 19.573 11.8505 20.168 13.0625 20.4091C14.2746 20.6502 15.5309 20.5265 16.6726 20.0536C17.8143 19.5807 18.7901 18.7798 19.4766 17.7523C20.1632 16.7248 20.5297 15.5168 20.5297 14.281C20.5297 12.6239 19.8714 11.0347 18.6996 9.8629C17.5278 8.69114 15.9386 8.03285 14.2815 8.03285Z" fill="#1D2730"/>
</svg>
