<svg width="562" height="415" viewBox="0 0 562 415" fill="none" xmlns="http://www.w3.org/2000/svg">
<g clip-path="url(#clip0_1_96)">
<path d="M477.162 415H453.399C453.047 414.362 452.719 413.707 452.416 413.045C449.681 407.197 448.526 400.67 447.421 394.273L445.628 383.885C451.36 388.049 457.089 392.209 462.816 396.367C464.683 397.725 466.591 399.14 468.384 400.67C472.159 403.868 475.418 407.565 476.695 412.26C476.761 412.521 476.827 412.783 476.876 413.045C477.012 413.69 477.108 414.343 477.162 415Z" fill="#F0F0F0"/>
<path d="M480.495 413.045C480.496 413.086 480.493 413.127 480.487 413.168C480.407 413.793 480.259 414.407 480.045 415H469.375C469.039 414.372 468.754 413.718 468.523 413.045C468.199 412.146 467.966 411.217 467.827 410.272C467.473 407.063 467.661 403.817 468.384 400.67C468.588 399.647 468.809 398.617 469.031 397.602L470.292 391.812L476.605 401.946C478.718 405.34 480.913 409.078 480.495 413.045Z" fill="#F0F0F0"/>
<path d="M561.187 29.8976H0.813321C0.596004 29.8927 0.389217 29.8031 0.237227 29.6479C0.0852374 29.4927 0.00012207 29.2842 0.00012207 29.0671C0.00012207 28.8499 0.0852374 28.6414 0.237227 28.4862C0.389217 28.331 0.596004 28.2414 0.813321 28.2366H561.187C561.404 28.2414 561.611 28.331 561.763 28.4862C561.915 28.6414 562 28.8499 562 29.0671C562 29.2842 561.915 29.4927 561.763 29.6479C561.611 29.8031 561.404 29.8927 561.187 29.8976Z" fill="#CACACA"/>
<path d="M19.1202 18.2707C24.0612 18.2707 28.0667 14.1807 28.0667 9.13536C28.0667 4.09004 24.0612 0 19.1202 0C14.1792 0 10.1738 4.09004 10.1738 9.13536C10.1738 14.1807 14.1792 18.2707 19.1202 18.2707Z" fill="#3F3D56"/>
<path d="M50.0258 18.2707C54.9668 18.2707 58.9723 14.1807 58.9723 9.13536C58.9723 4.09004 54.9668 0 50.0258 0C45.0848 0 41.0793 4.09004 41.0793 9.13536C41.0793 14.1807 45.0848 18.2707 50.0258 18.2707Z" fill="#3F3D56"/>
<path d="M80.9314 18.2707C85.8724 18.2707 89.8778 14.1807 89.8778 9.13536C89.8778 4.09004 85.8724 0 80.9314 0C75.9904 0 71.9849 4.09004 71.9849 9.13536C71.9849 14.1807 75.9904 18.2707 80.9314 18.2707Z" fill="#3F3D56"/>
<path d="M542.669 5.58795H520.709C520.275 5.57837 519.861 5.39916 519.557 5.08871C519.253 4.77826 519.083 4.36125 519.083 3.92697C519.083 3.4927 519.253 3.07568 519.557 2.76523C519.861 2.45478 520.275 2.27558 520.709 2.26599H542.669C543.104 2.27558 543.517 2.45478 543.821 2.76523C544.125 3.07568 544.296 3.4927 544.296 3.92697C544.296 4.36125 544.125 4.77826 543.821 5.08871C543.517 5.39916 543.104 5.57837 542.669 5.58795Z" fill="#3F3D56"/>
<path d="M542.669 11.8166H520.709C520.275 11.807 519.861 11.6278 519.557 11.3173C519.253 11.0069 519.083 10.5899 519.083 10.1556C519.083 9.72132 519.253 9.30432 519.557 8.99387C519.861 8.68342 520.275 8.50422 520.709 8.49463H542.669C543.104 8.50422 543.517 8.68342 543.821 8.99387C544.125 9.30432 544.296 9.72132 544.296 10.1556C544.296 10.5899 544.125 11.0069 543.821 11.3173C543.517 11.6278 543.104 11.807 542.669 11.8166Z" fill="#3F3D56"/>
<path d="M542.669 18.0451H520.709C520.275 18.0355 519.861 17.8563 519.557 17.5459C519.253 17.2354 519.083 16.8184 519.083 16.3841C519.083 15.9498 519.253 15.5328 519.557 15.2224C519.861 14.9119 520.275 14.7327 520.709 14.7231H542.669C543.104 14.7327 543.517 14.9119 543.821 15.2224C544.125 15.5328 544.296 15.9498 544.296 16.3841C544.296 16.8184 544.125 17.2354 543.821 17.5459C543.517 17.8563 543.104 18.0355 542.669 18.0451Z" fill="#3F3D56"/>
<path d="M478.565 312.431H53.0887C48.5933 312.426 44.2836 310.64 41.1049 307.465C37.9263 304.29 36.1383 299.985 36.1332 295.495V83.9862C36.1384 79.4961 37.9264 75.1914 41.105 72.0164C44.2837 68.8414 48.5934 67.0555 53.0887 67.0504H478.565C483.06 67.0555 487.37 68.8414 490.549 72.0164C493.727 75.1914 495.515 79.4961 495.521 83.9862V295.495C495.516 299.985 493.728 304.29 490.549 307.465C487.37 310.64 483.06 312.426 478.565 312.431Z" fill="#F0F0F0"/>
<path d="M525.27 370.14H99.7933C95.298 370.135 90.9883 368.349 87.8096 365.174C84.6309 361.999 82.8429 357.694 82.8379 353.204V141.695C82.843 137.205 84.631 132.9 87.8097 129.725C90.9884 126.55 95.298 124.764 99.7933 124.759H525.27C529.765 124.764 534.075 126.55 537.253 129.725C540.432 132.9 542.22 137.205 542.225 141.695V353.203C542.22 357.694 540.432 361.999 537.254 365.174C534.075 368.349 529.765 370.135 525.27 370.14Z" fill="white"/>
<path d="M525.27 370.14H99.7933C95.298 370.135 90.9883 368.349 87.8096 365.174C84.6309 361.999 82.8429 357.694 82.8379 353.204V141.695C82.843 137.205 84.631 132.9 87.8097 129.725C90.9884 126.55 95.298 124.764 99.7933 124.759H525.27C529.765 124.764 534.075 126.55 537.253 129.725C540.432 132.9 542.22 137.205 542.225 141.695V353.203C542.22 357.694 540.432 361.999 537.254 365.174C534.075 368.349 529.765 370.135 525.27 370.14ZM99.7933 127.213C95.9494 127.217 92.2641 128.745 89.546 131.46C86.8279 134.174 85.2989 137.856 85.2945 141.695V353.203C85.2988 357.043 86.8278 360.724 89.5459 363.439C92.264 366.154 95.9493 367.682 99.7933 367.686H525.27C529.114 367.682 532.799 366.154 535.517 363.439C538.235 360.724 539.764 357.043 539.769 353.203V141.695C539.764 137.856 538.235 134.175 535.517 131.46C532.799 128.745 529.114 127.217 525.27 127.213H99.7933Z" fill="#E4E4E4"/>
<path d="M132.466 333.11H472.692V274.863C472.64 268.721 471.361 262.651 468.929 257.01C466.497 251.369 462.961 246.269 458.53 242.012L458.437 241.921C452.36 235.831 432.052 220.375 411.041 221.685C399.941 222.375 390.439 227.718 382.797 237.566C359.012 268.23 327.767 257.879 311.259 248.98C296.711 241.136 281.854 237.454 267.098 238.04C246.431 238.847 217.342 246.452 196.128 278.098C188.025 290.175 170.404 306.569 132.466 316.203L132.466 333.11Z" fill="#08C9C9"/>
<path d="M491.942 334.464H133.121C132.824 334.464 132.538 334.346 132.327 334.135C132.117 333.925 131.998 333.64 131.998 333.342V161.556C131.998 161.259 132.117 160.974 132.327 160.763C132.538 160.553 132.824 160.435 133.121 160.435C133.419 160.435 133.705 160.553 133.915 160.763C134.126 160.974 134.244 161.259 134.244 161.556V332.221H491.942C492.239 332.221 492.525 332.339 492.736 332.549C492.946 332.759 493.065 333.045 493.065 333.342C493.065 333.64 492.946 333.925 492.736 334.135C492.525 334.346 492.239 334.464 491.942 334.464Z" fill="#3F3D56"/>
<path d="M266.348 246.534C270.069 246.534 273.085 243.521 273.085 239.804C273.085 236.088 270.069 233.075 266.348 233.075C262.626 233.075 259.61 236.088 259.61 239.804C259.61 243.521 262.626 246.534 266.348 246.534Z" fill="#3F3D56"/>
<path d="M398.494 228.935C402.215 228.935 405.232 225.922 405.232 222.205C405.232 218.488 402.215 215.475 398.494 215.475C394.773 215.475 391.757 218.488 391.757 222.205C391.757 225.922 394.773 228.935 398.494 228.935Z" fill="#3F3D56"/>
<path d="M332.422 265.234C336.143 265.234 339.16 262.221 339.16 258.504C339.16 254.787 336.143 251.774 332.422 251.774C328.701 251.774 325.684 254.787 325.684 258.504C325.684 262.221 328.701 265.234 332.422 265.234Z" fill="#3F3D56"/>
<path d="M200.273 275.134C203.994 275.134 207.011 272.121 207.011 268.404C207.011 264.687 203.994 261.674 200.273 261.674C196.552 261.674 193.536 264.687 193.536 268.404C193.536 272.121 196.552 275.134 200.273 275.134Z" fill="#3F3D56"/>
<path d="M464.569 253.134C468.29 253.134 471.306 250.121 471.306 246.404C471.306 242.687 468.29 239.674 464.569 239.674C460.847 239.674 457.831 242.687 457.831 246.404C457.831 250.121 460.847 253.134 464.569 253.134Z" fill="#3F3D56"/>
<path d="M542.623 267.573C541.879 266.858 541.302 265.987 540.931 265.024C540.56 264.061 540.405 263.029 540.477 262C540.549 260.97 540.846 259.969 541.347 259.067C541.848 258.165 542.541 257.383 543.377 256.777L536.113 232.769L548.618 236.49L553.599 258.718C554.525 260.189 554.878 261.947 554.593 263.661C554.307 265.374 553.402 266.924 552.049 268.015C550.696 269.107 548.989 269.665 547.252 269.583C545.515 269.502 543.868 268.787 542.623 267.573Z" fill="#9E616A"/>
<path d="M424.711 124.807C424.578 125.831 424.672 126.87 424.985 127.854C425.298 128.837 425.824 129.74 426.524 130.498C427.224 131.256 428.082 131.852 429.038 132.244C429.994 132.635 431.024 132.812 432.056 132.763L441.412 156.037L448.844 145.325L438.82 124.865C438.622 123.139 437.797 121.546 436.502 120.387C435.206 119.228 433.53 118.584 431.791 118.577C430.052 118.57 428.37 119.2 427.066 120.348C425.761 121.497 424.923 123.083 424.711 124.807Z" fill="#9E616A"/>
<path d="M530.197 404.724H521.583L517.485 371.535L530.199 371.535L530.197 404.724Z" fill="#9E616A"/>
<path d="M532.394 413.065L504.617 413.064V412.713C504.618 409.849 505.757 407.102 507.784 405.077C509.812 403.052 512.562 401.914 515.429 401.914H515.43L532.395 401.915L532.394 413.065Z" fill="#2F2E41"/>
<path d="M502.007 404.451L493.795 401.854L499.916 368.976L512.037 372.81L502.007 404.451Z" fill="#9E616A"/>
<path d="M501.582 413.065L475.101 404.691L475.207 404.356C476.072 401.626 477.988 399.351 480.533 398.031C483.078 396.712 486.043 396.456 488.777 397.32L488.778 397.32L504.951 402.435L501.582 413.065Z" fill="#2F2E41"/>
<path d="M491.805 242.515C491.805 242.515 479.023 262.561 483.54 280.453C488.056 298.345 492.975 332.735 492.975 332.735L517.464 390.949L535.719 390.206L517.59 321.569L518.307 275.678C518.307 275.678 530.907 253.745 528.453 246.918C526 240.091 491.805 242.515 491.805 242.515Z" fill="#2F2E41"/>
<path d="M533.563 249.682C533.563 249.682 535.135 269.568 530.217 277.991C525.298 286.413 520.058 318.469 520.058 318.469L511.697 382.581L494.381 376.952L509.147 305.122L520.753 248.621L533.563 249.682Z" fill="#2F2E41"/>
<path d="M539.702 153.412L526.192 144.136L505.632 143.539L498.472 150.551L487.546 156.124L486.534 246.918C486.534 246.918 519.253 262.583 536.856 255.022L545.324 184.294C548.837 170.256 539.702 153.412 539.702 153.412Z" fill="#3F3D56"/>
<path d="M490.289 180.387H454.251L430.574 139.678L445.97 133.587L459.008 156.754L477.88 155.048L489.663 154.478C491.551 154.387 493.436 154.709 495.187 155.422C496.938 156.135 498.511 157.221 499.798 158.604C501.084 159.988 502.053 161.635 502.635 163.432C503.217 165.228 503.4 167.13 503.169 169.004C502.78 172.144 501.257 175.033 498.885 177.129C496.513 179.225 493.456 180.384 490.289 180.387Z" fill="#3F3D56"/>
<path d="M517.587 136.062C527.433 136.062 535.414 128.09 535.414 118.256C535.414 108.422 527.433 100.45 517.587 100.45C507.742 100.45 499.761 108.422 499.761 118.256C499.761 128.09 507.742 136.062 517.587 136.062Z" fill="#9E616A"/>
<path d="M539.066 114.205C538.519 110.296 535.868 106.584 532.099 105.4C530.601 101.056 526.635 97.8586 522.253 96.4647C518.195 95.1722 513.822 95.2619 509.82 96.7197C505.818 98.1775 502.414 100.921 500.142 104.52C499.807 105.046 498.776 106.34 498.805 106.969C498.841 107.767 500.064 108.591 500.678 109.094C502.2 110.269 503.842 111.282 505.576 112.114C511.986 115.433 509.852 120.65 509.765 126.562C509.723 129.435 510.683 131.887 513.135 133.528C516.675 135.897 521.74 134.954 525.591 134.004C529.961 132.925 533.594 129.091 536.086 125.394C538.293 122.12 539.614 118.114 539.066 114.205Z" fill="#2F2E41"/>
<path d="M538.889 176.246L554.005 251.051L531.72 252.269L538.889 176.246Z" fill="#3F3D56"/>
<path d="M554.496 414.019C554.497 414.147 554.472 414.274 554.423 414.393C554.375 414.512 554.303 414.62 554.213 414.711C554.122 414.802 554.015 414.875 553.896 414.924C553.778 414.974 553.65 415 553.522 415H437.815C437.556 415 437.307 414.897 437.123 414.714C436.94 414.531 436.837 414.282 436.837 414.023C436.837 413.763 436.94 413.515 437.123 413.332C437.307 413.148 437.556 413.045 437.815 413.045H553.522C553.78 413.046 554.028 413.149 554.21 413.331C554.393 413.513 554.496 413.761 554.496 414.019Z" fill="#CACACA"/>
<path fill-rule="evenodd" clip-rule="evenodd" d="M173.633 137.037C168.11 137.037 163.633 141.515 163.633 147.037V173.689C163.633 179.211 168.11 183.689 173.633 183.689H381.67L394.119 205.204L406.568 183.689H408.821C414.344 183.689 418.821 179.211 418.821 173.689V147.037C418.821 141.515 414.344 137.037 408.821 137.037H173.633Z" fill="#07C9C9"/>
<path d="M184.454 153.256V166.756H181.923V153.256H184.454ZM184.094 161.667H183.399C183.405 161.005 183.493 160.396 183.663 159.839C183.833 159.277 184.076 158.79 184.392 158.38C184.709 157.964 185.087 157.642 185.526 157.413C185.971 157.185 186.464 157.071 187.003 157.071C187.471 157.071 187.896 157.138 188.277 157.273C188.664 157.402 188.995 157.613 189.27 157.906C189.552 158.193 189.768 158.571 189.921 159.039C190.073 159.508 190.149 160.077 190.149 160.745V166.756H187.6V160.727C187.6 160.305 187.539 159.974 187.416 159.734C187.299 159.488 187.126 159.315 186.897 159.215C186.675 159.11 186.399 159.057 186.071 159.057C185.708 159.057 185.397 159.124 185.139 159.259C184.887 159.394 184.685 159.581 184.533 159.822C184.381 160.056 184.269 160.331 184.199 160.648C184.129 160.964 184.094 161.304 184.094 161.667ZM196.732 157.246V159.039H191.195V157.246H196.732ZM192.566 154.9H195.097V163.891C195.097 164.166 195.133 164.377 195.203 164.524C195.279 164.67 195.39 164.773 195.537 164.831C195.683 164.884 195.868 164.911 196.091 164.911C196.249 164.911 196.389 164.905 196.512 164.893C196.641 164.875 196.75 164.858 196.838 164.84L196.846 166.703C196.63 166.774 196.395 166.829 196.143 166.87C195.891 166.911 195.613 166.932 195.308 166.932C194.752 166.932 194.265 166.841 193.849 166.66C193.439 166.472 193.123 166.173 192.9 165.763C192.677 165.353 192.566 164.814 192.566 164.146V154.9ZM202.832 157.246V159.039H197.295V157.246H202.832ZM198.666 154.9H201.197V163.891C201.197 164.166 201.232 164.377 201.302 164.524C201.379 164.67 201.49 164.773 201.636 164.831C201.783 164.884 201.968 164.911 202.19 164.911C202.348 164.911 202.489 164.905 202.612 164.893C202.741 164.875 202.849 164.858 202.937 164.84L202.946 166.703C202.729 166.774 202.495 166.829 202.243 166.87C201.991 166.911 201.713 166.932 201.408 166.932C200.851 166.932 200.365 166.841 199.949 166.66C199.539 166.472 199.222 166.173 199 165.763C198.777 165.353 198.666 164.814 198.666 164.146V154.9ZM206.804 159.075V170.412H204.273V157.246H206.62L206.804 159.075ZM212.825 161.896V162.08C212.825 162.772 212.743 163.413 212.579 164.005C212.421 164.597 212.186 165.113 211.876 165.552C211.565 165.986 211.178 166.326 210.716 166.572C210.259 166.812 209.731 166.932 209.134 166.932C208.553 166.932 208.05 166.815 207.622 166.58C207.194 166.346 206.834 166.018 206.541 165.596C206.254 165.168 206.022 164.673 205.846 164.111C205.671 163.548 205.536 162.945 205.442 162.3V161.817C205.536 161.125 205.671 160.493 205.846 159.918C206.022 159.338 206.254 158.837 206.541 158.415C206.834 157.988 207.191 157.657 207.613 157.422C208.041 157.188 208.542 157.071 209.116 157.071C209.719 157.071 210.25 157.185 210.707 157.413C211.17 157.642 211.556 157.97 211.867 158.398C212.183 158.826 212.421 159.335 212.579 159.927C212.743 160.519 212.825 161.175 212.825 161.896ZM210.285 162.08V161.896C210.285 161.492 210.25 161.12 210.179 160.78C210.115 160.434 210.01 160.132 209.863 159.874C209.722 159.617 209.535 159.417 209.301 159.277C209.072 159.13 208.794 159.057 208.466 159.057C208.12 159.057 207.824 159.113 207.578 159.224C207.338 159.335 207.141 159.496 206.989 159.707C206.837 159.918 206.722 160.17 206.646 160.463C206.57 160.756 206.523 161.087 206.506 161.456V162.678C206.535 163.112 206.617 163.501 206.752 163.847C206.886 164.187 207.094 164.456 207.376 164.656C207.657 164.855 208.026 164.954 208.483 164.954C208.817 164.954 209.098 164.881 209.327 164.735C209.555 164.582 209.74 164.374 209.881 164.111C210.027 163.847 210.13 163.542 210.188 163.197C210.253 162.851 210.285 162.479 210.285 162.08ZM219.54 164.128C219.54 163.947 219.487 163.783 219.382 163.636C219.276 163.49 219.08 163.355 218.793 163.232C218.511 163.103 218.104 162.986 217.571 162.88C217.091 162.775 216.642 162.643 216.226 162.485C215.816 162.321 215.459 162.124 215.154 161.896C214.855 161.667 214.621 161.398 214.451 161.087C214.281 160.771 214.196 160.411 214.196 160.006C214.196 159.608 214.281 159.233 214.451 158.881C214.627 158.53 214.876 158.219 215.198 157.95C215.526 157.674 215.925 157.46 216.393 157.308C216.868 157.15 217.401 157.071 217.993 157.071C218.819 157.071 219.528 157.203 220.12 157.466C220.718 157.73 221.175 158.093 221.491 158.556C221.813 159.013 221.974 159.535 221.974 160.12H219.443C219.443 159.874 219.39 159.655 219.285 159.461C219.185 159.262 219.027 159.107 218.81 158.995C218.599 158.878 218.324 158.82 217.984 158.82C217.703 158.82 217.46 158.87 217.255 158.969C217.05 159.063 216.891 159.192 216.78 159.356C216.675 159.514 216.622 159.69 216.622 159.883C216.622 160.03 216.651 160.161 216.71 160.279C216.774 160.39 216.877 160.493 217.017 160.586C217.158 160.68 217.34 160.768 217.562 160.85C217.791 160.926 218.072 160.996 218.406 161.061C219.092 161.202 219.704 161.386 220.243 161.615C220.782 161.837 221.21 162.142 221.526 162.529C221.843 162.91 222.001 163.411 222.001 164.032C222.001 164.453 221.907 164.84 221.719 165.192C221.532 165.543 221.262 165.851 220.911 166.115C220.559 166.372 220.137 166.575 219.645 166.721C219.159 166.862 218.611 166.932 218.002 166.932C217.117 166.932 216.367 166.774 215.752 166.457C215.142 166.141 214.679 165.74 214.363 165.253C214.052 164.761 213.897 164.257 213.897 163.742H216.297C216.308 164.087 216.396 164.366 216.56 164.577C216.73 164.787 216.944 164.94 217.202 165.034C217.466 165.127 217.75 165.174 218.054 165.174C218.383 165.174 218.655 165.13 218.872 165.042C219.089 164.949 219.253 164.826 219.364 164.673C219.481 164.515 219.54 164.333 219.54 164.128ZM223.741 165.535C223.741 165.16 223.87 164.846 224.128 164.594C224.391 164.342 224.74 164.216 225.174 164.216C225.607 164.216 225.953 164.342 226.211 164.594C226.474 164.846 226.606 165.16 226.606 165.535C226.606 165.91 226.474 166.223 226.211 166.475C225.953 166.727 225.607 166.853 225.174 166.853C224.74 166.853 224.391 166.727 224.128 166.475C223.87 166.223 223.741 165.91 223.741 165.535ZM223.741 158.284C223.741 157.909 223.87 157.595 224.128 157.343C224.391 157.091 224.74 156.965 225.174 156.965C225.607 156.965 225.953 157.091 226.211 157.343C226.474 157.595 226.606 157.909 226.606 158.284C226.606 158.659 226.474 158.972 226.211 159.224C225.953 159.476 225.607 159.602 225.174 159.602C224.74 159.602 224.391 159.476 224.128 159.224C223.87 158.972 223.741 158.659 223.741 158.284ZM234.191 153.959L229.498 167.855H227.617L232.31 153.959H234.191ZM238.761 153.959L234.068 167.855H232.187L236.881 153.959H238.761ZM242.506 159.215V166.756H239.966V157.246H242.347L242.506 159.215ZM242.154 161.667H241.451C241.451 161.005 241.53 160.396 241.688 159.839C241.852 159.277 242.09 158.79 242.4 158.38C242.717 157.964 243.106 157.642 243.569 157.413C244.032 157.185 244.568 157.071 245.177 157.071C245.599 157.071 245.986 157.135 246.338 157.264C246.689 157.387 246.991 157.583 247.243 157.853C247.501 158.117 247.7 158.462 247.841 158.89C247.981 159.312 248.052 159.819 248.052 160.411V166.756H245.52V160.692C245.52 160.258 245.462 159.924 245.344 159.69C245.227 159.455 245.06 159.291 244.844 159.198C244.633 159.104 244.378 159.057 244.079 159.057C243.751 159.057 243.464 159.124 243.218 159.259C242.977 159.394 242.778 159.581 242.62 159.822C242.462 160.056 242.344 160.331 242.268 160.648C242.192 160.964 242.154 161.304 242.154 161.667ZM247.814 161.377L246.909 161.492C246.909 160.87 246.985 160.293 247.137 159.76C247.296 159.227 247.527 158.758 247.832 158.354C248.142 157.95 248.526 157.636 248.983 157.413C249.44 157.185 249.968 157.071 250.565 157.071C251.022 157.071 251.438 157.138 251.813 157.273C252.188 157.402 252.508 157.61 252.771 157.897C253.041 158.178 253.246 158.547 253.386 159.004C253.533 159.461 253.606 160.021 253.606 160.683V166.756H251.066V160.683C251.066 160.244 251.008 159.91 250.89 159.681C250.779 159.447 250.615 159.286 250.398 159.198C250.187 159.104 249.935 159.057 249.642 159.057C249.338 159.057 249.071 159.119 248.843 159.242C248.614 159.359 248.424 159.523 248.271 159.734C248.119 159.945 248.005 160.191 247.928 160.472C247.852 160.747 247.814 161.049 247.814 161.377ZM259.943 166.932C259.205 166.932 258.543 166.815 257.957 166.58C257.371 166.34 256.873 166.009 256.463 165.587C256.058 165.165 255.748 164.676 255.531 164.12C255.314 163.557 255.206 162.959 255.206 162.327V161.975C255.206 161.254 255.308 160.595 255.513 159.997C255.719 159.4 256.011 158.881 256.392 158.442C256.779 158.002 257.248 157.665 257.799 157.431C258.349 157.191 258.97 157.071 259.662 157.071C260.336 157.071 260.933 157.182 261.455 157.405C261.976 157.627 262.413 157.944 262.764 158.354C263.122 158.764 263.391 159.256 263.573 159.83C263.755 160.399 263.845 161.032 263.845 161.729V162.784H256.287V161.096H261.358V160.903C261.358 160.551 261.294 160.238 261.165 159.962C261.042 159.681 260.854 159.458 260.602 159.294C260.35 159.13 260.028 159.048 259.635 159.048C259.302 159.048 259.014 159.121 258.774 159.268C258.534 159.414 258.338 159.62 258.185 159.883C258.039 160.147 257.927 160.457 257.851 160.815C257.781 161.166 257.746 161.553 257.746 161.975V162.327C257.746 162.707 257.799 163.059 257.904 163.381C258.015 163.703 258.171 163.982 258.37 164.216C258.575 164.451 258.821 164.632 259.108 164.761C259.401 164.89 259.732 164.954 260.101 164.954C260.558 164.954 260.983 164.867 261.376 164.691C261.774 164.509 262.117 164.237 262.404 163.873L263.635 165.209C263.435 165.496 263.163 165.772 262.817 166.036C262.477 166.299 262.067 166.516 261.587 166.686C261.106 166.85 260.558 166.932 259.943 166.932ZM267.765 159.277V166.756H265.234V157.246H267.607L267.765 159.277ZM267.396 161.667H266.711C266.711 160.964 266.802 160.331 266.983 159.769C267.165 159.201 267.42 158.717 267.748 158.319C268.076 157.914 268.466 157.607 268.917 157.396C269.374 157.179 269.884 157.071 270.446 157.071C270.891 157.071 271.299 157.135 271.668 157.264C272.037 157.393 272.353 157.598 272.617 157.879C272.886 158.161 273.092 158.533 273.232 158.995C273.379 159.458 273.452 160.024 273.452 160.692V166.756H270.903V160.683C270.903 160.261 270.844 159.933 270.727 159.699C270.61 159.464 270.437 159.3 270.209 159.206C269.986 159.107 269.711 159.057 269.383 159.057C269.043 159.057 268.747 159.124 268.495 159.259C268.249 159.394 268.044 159.581 267.88 159.822C267.721 160.056 267.601 160.331 267.519 160.648C267.437 160.964 267.396 161.304 267.396 161.667ZM280.035 157.246V159.039H274.498V157.246H280.035ZM275.869 154.9H278.4V163.891C278.4 164.166 278.435 164.377 278.506 164.524C278.582 164.67 278.693 164.773 278.84 164.831C278.986 164.884 279.171 164.911 279.393 164.911C279.552 164.911 279.692 164.905 279.815 164.893C279.944 164.875 280.052 164.858 280.14 164.84L280.149 166.703C279.932 166.774 279.698 166.829 279.446 166.87C279.194 166.911 278.916 166.932 278.611 166.932C278.054 166.932 277.568 166.841 277.152 166.66C276.742 166.472 276.426 166.173 276.203 165.763C275.98 165.353 275.869 164.814 275.869 164.146V154.9ZM280.844 162.098V161.913C280.844 161.216 280.943 160.575 281.142 159.989C281.342 159.397 281.632 158.884 282.012 158.451C282.393 158.017 282.862 157.68 283.419 157.44C283.975 157.194 284.614 157.071 285.335 157.071C286.055 157.071 286.697 157.194 287.26 157.44C287.822 157.68 288.294 158.017 288.675 158.451C289.061 158.884 289.354 159.397 289.553 159.989C289.753 160.575 289.852 161.216 289.852 161.913V162.098C289.852 162.789 289.753 163.431 289.553 164.023C289.354 164.609 289.061 165.121 288.675 165.561C288.294 165.995 287.825 166.331 287.268 166.572C286.712 166.812 286.073 166.932 285.352 166.932C284.632 166.932 283.99 166.812 283.427 166.572C282.871 166.331 282.399 165.995 282.012 165.561C281.632 165.121 281.342 164.609 281.142 164.023C280.943 163.431 280.844 162.789 280.844 162.098ZM283.375 161.913V162.098C283.375 162.496 283.41 162.869 283.48 163.214C283.551 163.56 283.662 163.865 283.814 164.128C283.972 164.386 284.177 164.588 284.429 164.735C284.681 164.881 284.989 164.954 285.352 164.954C285.704 164.954 286.006 164.881 286.258 164.735C286.51 164.588 286.712 164.386 286.864 164.128C287.016 163.865 287.128 163.56 287.198 163.214C287.274 162.869 287.312 162.496 287.312 162.098V161.913C287.312 161.527 287.274 161.163 287.198 160.824C287.128 160.478 287.013 160.173 286.855 159.91C286.703 159.64 286.501 159.429 286.249 159.277C285.997 159.124 285.692 159.048 285.335 159.048C284.977 159.048 284.673 159.124 284.421 159.277C284.175 159.429 283.972 159.64 283.814 159.91C283.662 160.173 283.551 160.478 283.48 160.824C283.41 161.163 283.375 161.527 283.375 161.913ZM293.939 159.321V166.756H291.408V157.246H293.79L293.939 159.321ZM296.804 157.185L296.76 159.532C296.637 159.514 296.488 159.499 296.312 159.488C296.142 159.47 295.987 159.461 295.846 159.461C295.489 159.461 295.178 159.508 294.915 159.602C294.657 159.69 294.44 159.822 294.264 159.997C294.094 160.173 293.966 160.387 293.878 160.639C293.796 160.891 293.749 161.178 293.737 161.5L293.227 161.342C293.227 160.727 293.289 160.161 293.412 159.646C293.535 159.124 293.714 158.67 293.948 158.284C294.188 157.897 294.481 157.598 294.827 157.387C295.173 157.176 295.568 157.071 296.013 157.071C296.154 157.071 296.298 157.082 296.444 157.106C296.591 157.123 296.711 157.15 296.804 157.185ZM296.734 165.535C296.734 165.16 296.863 164.846 297.121 164.594C297.385 164.342 297.733 164.216 298.167 164.216C298.6 164.216 298.946 164.342 299.204 164.594C299.468 164.846 299.599 165.16 299.599 165.535C299.599 165.91 299.468 166.223 299.204 166.475C298.946 166.727 298.6 166.853 298.167 166.853C297.733 166.853 297.385 166.727 297.121 166.475C296.863 166.223 296.734 165.91 296.734 165.535ZM305.76 164.954C306.071 164.954 306.346 164.896 306.587 164.779C306.827 164.656 307.014 164.486 307.149 164.269C307.29 164.046 307.363 163.786 307.369 163.487H309.751C309.745 164.155 309.566 164.749 309.215 165.271C308.863 165.786 308.391 166.194 307.8 166.493C307.208 166.786 306.546 166.932 305.813 166.932C305.075 166.932 304.43 166.809 303.88 166.563C303.335 166.317 302.881 165.977 302.517 165.543C302.154 165.104 301.882 164.594 301.7 164.014C301.518 163.428 301.427 162.801 301.427 162.133V161.878C301.427 161.204 301.518 160.578 301.7 159.997C301.882 159.411 302.154 158.902 302.517 158.468C302.881 158.029 303.335 157.686 303.88 157.44C304.425 157.194 305.063 157.071 305.796 157.071C306.575 157.071 307.258 157.22 307.844 157.519C308.435 157.818 308.898 158.245 309.232 158.802C309.572 159.353 309.745 160.006 309.751 160.762H307.369C307.363 160.446 307.296 160.159 307.167 159.901C307.044 159.643 306.862 159.438 306.622 159.286C306.387 159.127 306.097 159.048 305.752 159.048C305.383 159.048 305.081 159.127 304.846 159.286C304.612 159.438 304.43 159.649 304.302 159.918C304.173 160.182 304.082 160.484 304.029 160.824C303.982 161.158 303.959 161.509 303.959 161.878V162.133C303.959 162.502 303.982 162.857 304.029 163.197C304.076 163.536 304.164 163.838 304.293 164.102C304.427 164.366 304.612 164.574 304.846 164.726C305.081 164.878 305.385 164.954 305.76 164.954ZM310.814 162.098V161.913C310.814 161.216 310.914 160.575 311.113 159.989C311.312 159.397 311.602 158.884 311.983 158.451C312.364 158.017 312.833 157.68 313.389 157.44C313.946 157.194 314.585 157.071 315.305 157.071C316.026 157.071 316.668 157.194 317.23 157.44C317.793 157.68 318.264 158.017 318.645 158.451C319.032 158.884 319.325 159.397 319.524 159.989C319.723 160.575 319.823 161.216 319.823 161.913V162.098C319.823 162.789 319.723 163.431 319.524 164.023C319.325 164.609 319.032 165.121 318.645 165.561C318.264 165.995 317.796 166.331 317.239 166.572C316.682 166.812 316.044 166.932 315.323 166.932C314.602 166.932 313.961 166.812 313.398 166.572C312.842 166.331 312.37 165.995 311.983 165.561C311.602 165.121 311.312 164.609 311.113 164.023C310.914 163.431 310.814 162.789 310.814 162.098ZM313.345 161.913V162.098C313.345 162.496 313.381 162.869 313.451 163.214C313.521 163.56 313.633 163.865 313.785 164.128C313.943 164.386 314.148 164.588 314.4 164.735C314.652 164.881 314.96 164.954 315.323 164.954C315.675 164.954 315.976 164.881 316.228 164.735C316.48 164.588 316.682 164.386 316.835 164.128C316.987 163.865 317.098 163.56 317.169 163.214C317.245 162.869 317.283 162.496 317.283 162.098V161.913C317.283 161.527 317.245 161.163 317.169 160.824C317.098 160.478 316.984 160.173 316.826 159.91C316.674 159.64 316.471 159.429 316.219 159.277C315.968 159.124 315.663 159.048 315.305 159.048C314.948 159.048 314.643 159.124 314.391 159.277C314.145 159.429 313.943 159.64 313.785 159.91C313.633 160.173 313.521 160.478 313.451 160.824C313.381 161.163 313.345 161.527 313.345 161.913ZM323.91 159.215V166.756H321.37V157.246H323.752L323.91 159.215ZM323.558 161.667H322.855C322.855 161.005 322.934 160.396 323.093 159.839C323.257 159.277 323.494 158.79 323.804 158.38C324.121 157.964 324.51 157.642 324.973 157.413C325.436 157.185 325.972 157.071 326.582 157.071C327.004 157.071 327.39 157.135 327.742 157.264C328.094 157.387 328.395 157.583 328.647 157.853C328.905 158.117 329.104 158.462 329.245 158.89C329.385 159.312 329.456 159.819 329.456 160.411V166.756H326.925V160.692C326.925 160.258 326.866 159.924 326.749 159.69C326.632 159.455 326.465 159.291 326.248 159.198C326.037 159.104 325.782 159.057 325.483 159.057C325.155 159.057 324.868 159.124 324.622 159.259C324.382 159.394 324.182 159.581 324.024 159.822C323.866 160.056 323.749 160.331 323.673 160.648C323.596 160.964 323.558 161.304 323.558 161.667ZM329.219 161.377L328.313 161.492C328.313 160.87 328.389 160.293 328.542 159.76C328.7 159.227 328.931 158.758 329.236 158.354C329.547 157.95 329.93 157.636 330.387 157.413C330.844 157.185 331.372 157.071 331.969 157.071C332.427 157.071 332.843 157.138 333.218 157.273C333.593 157.402 333.912 157.61 334.176 157.897C334.445 158.178 334.65 158.547 334.791 159.004C334.937 159.461 335.01 160.021 335.01 160.683V166.756H332.47V160.683C332.47 160.244 332.412 159.91 332.295 159.681C332.183 159.447 332.019 159.286 331.802 159.198C331.592 159.104 331.34 159.057 331.047 159.057C330.742 159.057 330.475 159.119 330.247 159.242C330.018 159.359 329.828 159.523 329.676 159.734C329.523 159.945 329.409 160.191 329.333 160.472C329.257 160.747 329.219 161.049 329.219 161.377ZM342.437 153.959L337.744 167.855H335.863L340.556 153.959H342.437ZM348.792 164.128C348.792 163.947 348.739 163.783 348.634 163.636C348.528 163.49 348.332 163.355 348.045 163.232C347.763 163.103 347.356 162.986 346.823 162.88C346.343 162.775 345.894 162.643 345.478 162.485C345.068 162.321 344.711 162.124 344.406 161.896C344.107 161.667 343.873 161.398 343.703 161.087C343.533 160.771 343.448 160.411 343.448 160.006C343.448 159.608 343.533 159.233 343.703 158.881C343.879 158.53 344.128 158.219 344.45 157.95C344.778 157.674 345.177 157.46 345.645 157.308C346.12 157.15 346.653 157.071 347.245 157.071C348.071 157.071 348.78 157.203 349.372 157.466C349.969 157.73 350.427 158.093 350.743 158.556C351.065 159.013 351.226 159.535 351.226 160.12H348.695C348.695 159.874 348.642 159.655 348.537 159.461C348.437 159.262 348.279 159.107 348.062 158.995C347.851 158.878 347.576 158.82 347.236 158.82C346.955 158.82 346.712 158.87 346.507 158.969C346.302 159.063 346.143 159.192 346.032 159.356C345.927 159.514 345.874 159.69 345.874 159.883C345.874 160.03 345.903 160.161 345.962 160.279C346.026 160.39 346.129 160.493 346.269 160.586C346.41 160.68 346.592 160.768 346.814 160.85C347.043 160.926 347.324 160.996 347.658 161.061C348.344 161.202 348.956 161.386 349.495 161.615C350.034 161.837 350.462 162.142 350.778 162.529C351.094 162.91 351.253 163.411 351.253 164.032C351.253 164.453 351.159 164.84 350.971 165.192C350.784 165.543 350.514 165.851 350.163 166.115C349.811 166.372 349.389 166.575 348.897 166.721C348.411 166.862 347.863 166.932 347.254 166.932C346.369 166.932 345.619 166.774 345.004 166.457C344.394 166.141 343.931 165.74 343.615 165.253C343.304 164.761 343.149 164.257 343.149 163.742H345.549C345.56 164.087 345.648 164.366 345.812 164.577C345.982 164.787 346.196 164.94 346.454 165.034C346.718 165.127 347.002 165.174 347.306 165.174C347.635 165.174 347.907 165.13 348.124 165.042C348.341 164.949 348.505 164.826 348.616 164.673C348.733 164.515 348.792 164.333 348.792 164.128ZM357.273 166.932C356.535 166.932 355.873 166.815 355.287 166.58C354.701 166.34 354.203 166.009 353.793 165.587C353.388 165.165 353.078 164.676 352.861 164.12C352.644 163.557 352.536 162.959 352.536 162.327V161.975C352.536 161.254 352.638 160.595 352.844 159.997C353.049 159.4 353.342 158.881 353.722 158.442C354.109 158.002 354.578 157.665 355.129 157.431C355.679 157.191 356.301 157.071 356.992 157.071C357.666 157.071 358.263 157.182 358.785 157.405C359.306 157.627 359.743 157.944 360.094 158.354C360.452 158.764 360.721 159.256 360.903 159.83C361.085 160.399 361.176 161.032 361.176 161.729V162.784H353.617V161.096H358.688V160.903C358.688 160.551 358.624 160.238 358.495 159.962C358.372 159.681 358.184 159.458 357.932 159.294C357.68 159.13 357.358 159.048 356.966 159.048C356.632 159.048 356.344 159.121 356.104 159.268C355.864 159.414 355.668 159.62 355.515 159.883C355.369 160.147 355.258 160.457 355.181 160.815C355.111 161.166 355.076 161.553 355.076 161.975V162.327C355.076 162.707 355.129 163.059 355.234 163.381C355.345 163.703 355.501 163.982 355.7 164.216C355.905 164.451 356.151 164.632 356.438 164.761C356.731 164.89 357.062 164.954 357.431 164.954C357.888 164.954 358.313 164.867 358.706 164.691C359.104 164.509 359.447 164.237 359.734 163.873L360.965 165.209C360.765 165.496 360.493 165.772 360.147 166.036C359.807 166.299 359.397 166.516 358.917 166.686C358.436 166.85 357.888 166.932 357.273 166.932ZM368.242 164.48V157.246H370.773V166.756H368.391L368.242 164.48ZM368.523 162.529L369.27 162.511C369.27 163.144 369.197 163.733 369.051 164.278C368.904 164.817 368.684 165.286 368.391 165.684C368.098 166.077 367.729 166.384 367.284 166.607C366.839 166.824 366.314 166.932 365.711 166.932C365.248 166.932 364.82 166.868 364.427 166.739C364.041 166.604 363.707 166.396 363.426 166.115C363.15 165.828 362.933 165.461 362.775 165.016C362.623 164.565 362.547 164.023 362.547 163.39V157.246H365.078V163.408C365.078 163.689 365.11 163.926 365.175 164.12C365.245 164.313 365.342 164.471 365.465 164.594C365.588 164.717 365.731 164.805 365.895 164.858C366.065 164.911 366.253 164.937 366.458 164.937C366.979 164.937 367.389 164.831 367.688 164.62C367.993 164.41 368.207 164.122 368.33 163.759C368.459 163.39 368.523 162.98 368.523 162.529ZM375.379 153.256V166.756H372.839V153.256H375.379ZM380.142 157.246V166.756H377.602V157.246H380.142ZM377.444 154.768C377.444 154.399 377.573 154.094 377.831 153.854C378.089 153.614 378.434 153.494 378.868 153.494C379.296 153.494 379.638 153.614 379.896 153.854C380.16 154.094 380.292 154.399 380.292 154.768C380.292 155.137 380.16 155.442 379.896 155.682C379.638 155.922 379.296 156.042 378.868 156.042C378.434 156.042 378.089 155.922 377.831 155.682C377.573 155.442 377.444 155.137 377.444 154.768ZM384.713 159.277V166.756H382.181V157.246H384.554L384.713 159.277ZM384.344 161.667H383.658C383.658 160.964 383.749 160.331 383.93 159.769C384.112 159.201 384.367 158.717 384.695 158.319C385.023 157.914 385.413 157.607 385.864 157.396C386.321 157.179 386.831 157.071 387.393 157.071C387.839 157.071 388.246 157.135 388.615 157.264C388.984 157.393 389.301 157.598 389.564 157.879C389.834 158.161 390.039 158.533 390.179 158.995C390.326 159.458 390.399 160.024 390.399 160.692V166.756H387.85V160.683C387.85 160.261 387.792 159.933 387.675 159.699C387.557 159.464 387.385 159.3 387.156 159.206C386.933 159.107 386.658 159.057 386.33 159.057C385.99 159.057 385.694 159.124 385.442 159.259C385.196 159.394 384.991 159.581 384.827 159.822C384.669 160.056 384.549 160.331 384.467 160.648C384.385 160.964 384.344 161.304 384.344 161.667ZM394.855 153.247V166.756H392.324V153.247H394.855ZM400.849 157.246L396.719 161.957L394.504 164.199L393.581 162.37L395.339 160.138L397.808 157.246H400.849ZM398.221 166.756L395.409 162.362L397.158 160.832L401.139 166.756H398.221Z" fill="black"/>
</g>
<defs>
<clipPath id="clip0_1_96">
<rect width="562" height="415" fill="white"/>
</clipPath>
</defs>
</svg>
